<svg width="1379" height="873" viewBox="0 0 1379 873" fill="none" xmlns="http://www.w3.org/2000/svg">
<g clip-path="url(#clip0_1016_234)">
<path d="M734.32 552.35L775.1 752.88" stroke="url(#paint0_linear_1016_234)" stroke-width="6" stroke-linecap="round" stroke-linejoin="round"/>
<path d="M624.198 454.91L623.198 442.56C620.908 414.49 615.058 383.89 602.898 354.77" stroke="url(#paint1_linear_1016_234)" stroke-width="6" stroke-linecap="round" stroke-linejoin="round"/>
<path d="M343.24 226.65C133.72 217.22 103.67 345.14 111.61 442.56L146.23 866.88" stroke="url(#paint2_linear_1016_234)" stroke-width="6" stroke-linecap="round" stroke-linejoin="round"/>
<path d="M706.998 820.19C706.87 820.327 706.715 820.436 706.543 820.511C706.371 820.585 706.186 820.624 705.998 820.624C705.811 820.624 705.625 820.585 705.453 820.511C705.281 820.436 705.126 820.327 704.998 820.19L694.698 809.29L690.908 800.09C686.608 800.66 680.978 799.95 676.748 796.09L674.648 793.89C680.468 801.39 680.648 810.32 660.458 801.29C660.458 801.29 626.588 791.18 625.858 791.09C625.858 791.09 502.528 804.72 371.328 789.89L376.258 868.66L717.318 869.71L706.998 820.19ZM579.848 861H566.188C565.154 861.037 564.124 860.866 563.157 860.496C562.191 860.126 561.31 859.565 560.565 858.847C559.82 858.129 559.228 857.268 558.824 856.316C558.419 855.364 558.211 854.34 558.211 853.305C558.211 852.271 558.419 851.247 558.824 850.294C559.228 849.342 559.82 848.481 560.565 847.763C561.31 847.045 562.191 846.484 563.157 846.114C564.124 845.744 565.154 845.573 566.188 845.61H579.848C580.882 845.573 581.913 845.744 582.879 846.114C583.845 846.484 584.727 847.045 585.471 847.763C586.216 848.481 586.808 849.342 587.213 850.294C587.617 851.247 587.826 852.271 587.826 853.305C587.826 854.34 587.617 855.364 587.213 856.316C586.808 857.268 586.216 858.129 585.471 858.847C584.727 859.565 583.845 860.126 582.879 860.496C581.913 860.866 580.882 861.037 579.848 861ZM579.848 824.14H566.188C565.177 824.14 564.176 823.941 563.241 823.554C562.307 823.167 561.458 822.6 560.743 821.885C560.028 821.17 559.461 820.321 559.074 819.387C558.687 818.453 558.488 817.451 558.488 816.44C558.488 815.429 558.687 814.428 559.074 813.493C559.461 812.559 560.028 811.71 560.743 810.995C561.458 810.28 562.307 809.713 563.241 809.326C564.176 808.939 565.177 808.74 566.188 808.74H579.848C580.859 808.74 581.861 808.939 582.795 809.326C583.729 809.713 584.578 810.28 585.293 810.995C586.008 811.71 586.575 812.559 586.962 813.493C587.349 814.428 587.548 815.429 587.548 816.44C587.548 817.451 587.349 818.453 586.962 819.387C586.575 820.321 586.008 821.17 585.293 821.885C584.578 822.6 583.729 823.167 582.795 823.554C581.861 823.941 580.859 824.14 579.848 824.14Z" fill="url(#paint3_linear_1016_234)"/>
<path d="M580.079 430.94C583.339 435.63 620.079 493.4 539.139 500.45C486.359 505.05 428.139 474.08 396.849 437.37C396.849 437.37 393.849 435.1 393.649 435.1C372.069 439.89 351.099 445.47 342.479 450.56C332.479 456.48 285.069 485.12 267.599 561.9C267.529 561.97 270.489 562.73 270.599 562.81C270.539 562.62 399.339 601.46 399.339 601.46L388.729 695.56C388.729 695.56 532.589 714.67 606.179 721.61L606.959 721.71C618.569 721.71 630.959 724.95 641.149 728.57C648.815 729.918 656.377 731.802 663.779 734.21L632.219 657.8L645.389 652.39L682.599 742.49C685.599 744.21 688.789 746.04 691.949 747.91L679.339 687.5C679.339 687.5 701.129 660.28 699.449 621.92C699.336 619.393 699.119 616.823 698.799 614.21C699.009 613.69 744.799 598.79 747.369 593.3C745.599 562 720.159 479 675.339 459.68C660.999 453 626.659 440.74 619.649 438.35C609.649 434.93 595.399 431.46 579.889 427.8" fill="url(#paint4_linear_1016_234)"/>
<path d="M425.882 116.503L447.91 106.268L429.889 67.4801L407.86 77.7147L425.882 116.503Z" fill="#108dff"/>
<path d="M402.202 85.57C425.829 85.57 444.982 66.4168 444.982 42.79C444.982 19.1633 425.829 0.0100098 402.202 0.0100098C378.575 0.0100098 359.422 19.1633 359.422 42.79C359.422 66.4168 378.575 85.57 402.202 85.57Z" fill="url(#paint5_linear_1016_234)"/>
<path d="M551 80.6399C514 67.4699 474.34 74 438.13 86.87C321.92 130 315.81 297.88 304.34 349.06C302.5 357.25 309.34 365.54 317.94 365.51L455.16 383.88L461.7 322.44C461.7 322.44 456.91 310.59 453.04 300.89L453.23 307.34C453.23 307.34 404.1 314.46 401.88 268.74C400.49 240.19 423.52 236 441 236.83C440.86 233.83 440.81 232.09 440.82 232.13C504.46 229.76 577.31 188.81 595.07 153.92C616.22 166.5 627.2 188.03 631.8 245.44C672.92 207.37 663.73 126.4 551 80.6399Z" fill="url(#paint6_linear_1016_234)"/>
<path d="M453.23 307.34C453.23 307.34 404.1 314.46 401.88 268.74C400.19 234.06 434.521 235.28 451.201 237.89" stroke="url(#paint7_linear_1016_234)" stroke-width="6" stroke-linecap="round" stroke-linejoin="round"/>
<path d="M631.831 245.42C627.231 188.01 616.581 168.65 595.421 156.07C577.941 190.41 513.421 230.38 442.421 232.07C441.051 240.07 442.101 232.93 441.961 241.66C442.401 250.66 443.031 260.92 443.881 269.52C449.361 302.05 461.701 322.4 461.701 322.4C479.171 354.09 507.821 378.1 545.951 381.56C612.501 387.56 630.341 293.82 631.861 273.01C632.611 262.69 631.861 245.32 631.861 245.32L631.831 245.42Z" stroke="url(#paint8_linear_1016_234)" stroke-width="6" stroke-linecap="round" stroke-linejoin="round"/>
<path d="M575.301 297.26L594.521 297.27L581.391 221.49" stroke="url(#paint9_linear_1016_234)" stroke-width="6" stroke-linecap="round" stroke-linejoin="round"/>
<path d="M526 223.08C526 223.08 538 207.57 551.19 216.22" stroke="url(#paint10_linear_1016_234)" stroke-width="6" stroke-linecap="round" stroke-linejoin="round"/>
<path d="M566.772 331.21C566.772 331.21 547.772 336.26 542.582 321.41" stroke="url(#paint11_linear_1016_234)" stroke-width="6" stroke-linecap="round" stroke-linejoin="round"/>
<path d="M604.16 220.78C604.16 220.78 620.89 210.53 630.16 223.27" stroke="url(#paint12_linear_1016_234)" stroke-width="6" stroke-linecap="round" stroke-linejoin="round"/>
<path d="M554.768 260.346C554.957 254.903 552.259 250.393 548.743 250.271C545.227 250.15 542.224 254.463 542.036 259.905C541.848 265.348 544.546 269.858 548.062 269.98C551.577 270.101 554.58 265.788 554.768 260.346Z" fill="url(#paint13_linear_1016_234)"/>
<path d="M622.487 262.303C622.675 256.861 619.978 252.351 616.462 252.229C612.946 252.108 609.943 256.421 609.755 261.863C609.567 267.305 612.264 271.816 615.78 271.937C619.296 272.059 622.299 267.746 622.487 262.303Z" fill="url(#paint14_linear_1016_234)"/>
<path d="M571.971 243.181C572.871 213.742 555.498 189.323 533.169 188.641C510.839 187.959 492.009 211.271 491.109 240.711C490.21 270.15 507.582 294.569 529.912 295.251C552.241 295.934 571.072 272.621 571.971 243.181Z" stroke="#108dff" stroke-width="6" stroke-linecap="round" stroke-linejoin="round"/>
<path d="M679.303 250.268C680.203 220.828 662.83 196.41 640.501 195.728C618.171 195.045 599.341 218.358 598.441 247.798C597.542 277.237 614.914 301.656 637.244 302.338C659.573 303.02 678.404 279.708 679.303 250.268Z" stroke="#108dff" stroke-width="6" stroke-linecap="round" stroke-linejoin="round"/>
<path d="M597.14 239.94L571.75 240.02" stroke="#108dff" stroke-width="6" stroke-linecap="round" stroke-linejoin="round"/>
<path d="M491.51 231.34L437.07 237.17" stroke="#108dff" stroke-width="6" stroke-linecap="round" stroke-linejoin="round"/>
<path d="M632.84 725.7C647.27 727.83 667.18 733.7 681.73 741.99C698.56 751.53 720.39 764.65 721.51 770.43C723.05 778.29 709.41 774.75 700.24 771.71" stroke="url(#paint15_linear_1016_234)" stroke-width="6" stroke-linecap="round" stroke-linejoin="round"/>
<path d="M690.22 760.9L644.51 650.2L631.34 655.61L666.94 741.82" fill="#108dff"/>
<path d="M716.88 790.45C715.79 785.58 674.34 743.45 659.21 736.09C649.41 731.34 627.07 721.73 606.93 721.68L606.15 721.58C532.56 714.64 388.7 695.53 388.7 695.53L399.31 601.43C399.31 601.43 270.51 562.59 270.57 562.78C260.67 635.36 262.71 716.06 271.36 745.12C276.6 762.7 295.93 778.12 313.97 781.43C464.06 808.92 625.88 791.03 625.88 791.03C626.61 791.13 660.48 801.24 660.48 801.24C681.33 810.59 680.48 800.69 674.04 793.06C675.025 793.99 675.937 794.992 676.77 796.06C683.99 802.67 695.3 800.06 697.07 797.61C698.84 795.16 690.88 787.95 680.37 776.52L681.63 777.45C699.05 797.51 719.79 803.41 716.88 790.45Z" stroke="url(#paint16_linear_1016_234)" stroke-width="6" stroke-linecap="round" stroke-linejoin="round"/>
<path d="M676.8 796.06C667.49 784 641 776 641 776C644 776.29 662.2 782.43 671.06 790" fill="white"/>
<path d="M676.8 796.06C667.49 784 641 776 641 776C644 776.29 662.2 782.43 671.06 790" stroke="url(#paint17_linear_1016_234)" stroke-width="6" stroke-linecap="round" stroke-linejoin="round"/>
<path d="M652.23 760.63C652.23 760.63 669.531 764.63 680.151 776.25Z" fill="white"/>
<path d="M652.23 760.63C652.23 760.63 669.531 764.63 680.151 776.25" stroke="url(#paint18_linear_1016_234)" stroke-width="6" stroke-linecap="round" stroke-linejoin="round"/>
<path d="M752.229 803.74H485.059C482.141 803.74 479.343 804.899 477.28 806.962C475.218 809.025 474.059 811.823 474.059 814.74V822.74C474.059 825.657 475.218 828.455 477.28 830.518C479.343 832.581 482.141 833.74 485.059 833.74H752.229C755.146 833.74 757.944 832.581 760.007 830.518C762.07 828.455 763.229 825.657 763.229 822.74V814.74C763.229 811.823 762.07 809.025 760.007 806.962C757.944 804.899 755.146 803.74 752.229 803.74Z" fill="#108dff"/>
<path d="M817.189 512.49C811.189 512.49 806.069 516.98 804.699 523.35L738.999 828.69H455.999C455.999 828.69 448.229 869 493.769 869C512.689 869 637.829 868.91 777.679 868.81C773.599 862.93 771.569 854.29 772.919 848.02L842.769 525.69C844.439 517.9 850.769 512.46 858.189 512.46L817.189 512.49ZM587.549 853.29C587.55 854.301 587.352 855.303 586.966 856.238C586.579 857.173 586.012 858.022 585.297 858.738C584.581 859.453 583.732 860.02 582.797 860.406C581.862 860.793 580.861 860.991 579.849 860.99H566.189C564.147 860.99 562.188 860.179 560.744 858.735C559.3 857.291 558.489 855.332 558.489 853.29C558.489 852.279 558.688 851.278 559.075 850.345C559.462 849.411 560.03 848.563 560.745 847.849C561.46 847.135 562.309 846.568 563.243 846.182C564.177 845.797 565.178 845.599 566.189 845.6H579.849C580.86 845.599 581.861 845.797 582.795 846.182C583.729 846.568 584.578 847.135 585.293 847.849C586.008 848.563 586.576 849.411 586.963 850.345C587.35 851.278 587.549 852.279 587.549 853.29Z" fill="url(#paint19_linear_1016_234)"/>
<path d="M570.87 816.46C570.87 816.46 537.19 811.07 536.59 834.68V835.33C537.19 858.94 570.87 853.55 570.87 853.55" stroke="url(#paint20_linear_1016_234)" stroke-width="6" stroke-linecap="round" stroke-linejoin="round"/>
<path d="M993.398 255.029L913.598 249.443L908.107 327.883L987.907 333.469L993.398 255.029Z" fill="#108dff"/>
<path d="M978.796 293.758L960.227 292.528L958.996 311.098L977.566 312.328L978.796 293.758Z" stroke="url(#paint21_linear_1016_234)" stroke-width="6" stroke-linecap="round" stroke-linejoin="round"/>
<path d="M978.797 293.8L959.027 311.09" stroke="url(#paint22_linear_1016_234)" stroke-width="6" stroke-linecap="round" stroke-linejoin="round"/>
<path d="M981.853 267.005L922.953 262.882L921.711 280.632L980.611 284.755L981.853 267.005Z" stroke="url(#paint23_linear_1016_234)" stroke-width="6.01468" stroke-linecap="round" stroke-linejoin="round"/>
<path d="M918.648 308.94L948.538 310.92" stroke="url(#paint24_linear_1016_234)" stroke-width="6" stroke-linecap="round" stroke-linejoin="round"/>
<path d="M919.258 299.68L949.148 301.66" stroke="url(#paint25_linear_1016_234)" stroke-width="6" stroke-linecap="round" stroke-linejoin="round"/>
<path d="M919.859 290.42L949.759 292.4" stroke="url(#paint26_linear_1016_234)" stroke-width="6" stroke-linecap="round" stroke-linejoin="round"/>
<path d="M920.777 276.42L980.727 262.6" stroke="url(#paint27_linear_1016_234)" stroke-width="6" stroke-linecap="round" stroke-linejoin="round"/>
<path d="M1100.51 174.374L1032.99 152.134C1024.69 149.4 1015.74 153.914 1013 162.218L1012.44 163.946C1009.7 172.25 1014.21 181.199 1022.52 183.934L1090.04 206.173C1098.34 208.908 1107.29 204.394 1110.03 196.09L1110.6 194.361C1113.33 186.057 1108.82 177.109 1100.51 174.374Z" stroke="url(#paint28_linear_1016_234)" stroke-width="6" stroke-linecap="round" stroke-linejoin="round"/>
<path d="M1093.03 214.73C1107.34 214.73 1118.94 203.13 1118.94 188.82C1118.94 174.51 1107.34 162.91 1093.03 162.91C1078.72 162.91 1067.12 174.51 1067.12 188.82C1067.12 203.13 1078.72 214.73 1093.03 214.73Z" fill="url(#paint29_linear_1016_234)"/>
<path d="M1232.63 405.794L1172.36 259.276L1025.84 319.547L1086.11 466.065L1232.63 405.794Z" fill="#108dff"/>
<path d="M1142.76 468.67L1137.88 474.37L1132.18 469.48" stroke="url(#paint30_linear_1016_234)" stroke-width="6" stroke-linecap="round" stroke-linejoin="round"/>
<path d="M1120.09 459.11L1029.36 381.29" stroke="url(#paint31_linear_1016_234)" stroke-width="6" stroke-linecap="round" stroke-linejoin="round" stroke-dasharray="15.94 15.94"/>
<path d="M1023.31 376.11L1017.62 371.22L1022.5 365.53" stroke="url(#paint32_linear_1016_234)" stroke-width="6" stroke-linecap="round" stroke-linejoin="round"/>
<path d="M1032.87 353.43L1110.69 262.7" stroke="url(#paint33_linear_1016_234)" stroke-width="6" stroke-linecap="round" stroke-linejoin="round" stroke-dasharray="15.94 15.94"/>
<path d="M1115.88 256.66L1120.76 250.96L1126.45 255.84" stroke="url(#paint34_linear_1016_234)" stroke-width="6" stroke-linecap="round" stroke-linejoin="round"/>
<path d="M1138.55 266.22L1229.28 344.03" stroke="url(#paint35_linear_1016_234)" stroke-width="6" stroke-linecap="round" stroke-linejoin="round" stroke-dasharray="15.94 15.94"/>
<path d="M1235.33 349.22L1241.02 354.1L1236.14 359.8" stroke="url(#paint36_linear_1016_234)" stroke-width="6" stroke-linecap="round" stroke-linejoin="round"/>
<path d="M1225.76 371.89L1147.95 462.62" stroke="url(#paint37_linear_1016_234)" stroke-width="6" stroke-linecap="round" stroke-linejoin="round" stroke-dasharray="15.94 15.94"/>
<path d="M1143.57 408.65C1143.57 408.65 1190.9 449.38 1213.91 514.75" stroke="url(#paint38_linear_1016_234)" stroke-width="6" stroke-linejoin="round"/>
<path d="M1144 416.36C1148.19 416.36 1151.59 412.962 1151.59 408.77C1151.59 404.578 1148.19 401.18 1144 401.18C1139.81 401.18 1136.41 404.578 1136.41 408.77C1136.41 412.962 1139.81 416.36 1144 416.36Z" fill="url(#paint39_linear_1016_234)"/>
<path d="M1271 512.49H1216.1C1227.32 542.62 1231.58 573.08 1228.74 603.06C1225.23 640.06 1210.87 677.56 1186.06 714.61C1185.84 714.938 1185.56 715.22 1185.23 715.44C1184.9 715.659 1184.53 715.812 1184.15 715.889C1183.76 715.966 1183.36 715.966 1182.97 715.889C1182.59 715.812 1182.22 715.659 1181.89 715.44C1181.56 715.221 1181.28 714.939 1181.06 714.611C1180.84 714.282 1180.69 713.914 1180.61 713.527C1180.53 713.14 1180.53 712.741 1180.61 712.354C1180.69 711.967 1180.84 711.598 1181.06 711.27C1225.8 644.45 1235.24 579.61 1209.91 513.05C1209.84 512.869 1209.79 512.681 1209.76 512.49H858.198C858.994 512.49 859.757 512.806 860.32 513.369C860.882 513.931 861.198 514.694 861.198 515.49C861.198 516.286 860.882 517.049 860.32 517.611C859.757 518.174 858.994 518.49 858.198 518.49C853.648 518.49 849.708 521.98 848.638 526.98L778.778 849.32C777.708 854.32 779.778 861.95 783.308 866.32C784.074 867.302 785.013 868.136 786.078 868.78C980.908 868.65 1200.56 868.48 1200.56 868.48C1206.56 868.48 1211.68 863.98 1213.05 857.62L1283.54 529.79C1285.45 521 1279.33 512.49 1271 512.49ZM1049.93 665.25C1049.93 665.25 1035.67 670.96 1030.93 654.12C1030.9 654.12 1048.78 649.78 1049.93 665.25ZM1064.19 729.59C1052.9 741.59 1034.31 745.2 1022.68 737.59C1011.05 729.98 1010.77 714.02 1022.06 701.98C1027.18 696.574 1033.76 692.761 1041 691C1039.99 689.28 1039.46 687.323 1039.46 685.33C1039.46 678.63 1044.46 672.27 1050.65 671.14H1050.98C1052.59 666.24 1055.88 657 1059.05 653.26C1059.3 652.959 1059.61 652.712 1059.97 652.531C1060.32 652.351 1060.7 652.241 1061.09 652.209C1061.48 652.176 1061.88 652.222 1062.25 652.342C1062.63 652.462 1062.98 652.655 1063.28 652.91C1063.58 653.165 1063.83 653.476 1064.01 653.827C1064.19 654.177 1064.3 654.56 1064.33 654.953C1064.36 655.345 1064.32 655.741 1064.2 656.116C1064.08 656.491 1063.88 656.839 1063.63 657.14C1061.43 659.72 1058.69 667.04 1056.98 672.14C1058.56 673.07 1059.86 674.41 1060.74 676.017C1061.62 677.624 1062.04 679.439 1061.98 681.27C1061.92 685.038 1060.45 688.647 1057.86 691.38C1059.88 692.007 1061.81 692.905 1063.6 694.05C1075.22 701.62 1075.49 717.56 1064.19 729.59Z" fill="url(#paint40_linear_1016_234)"/>
<path d="M1215.53 510.91C1215.26 510.212 1214.75 509.639 1214.08 509.301C1213.42 508.963 1212.65 508.885 1211.93 509.082C1211.21 509.28 1210.59 509.738 1210.19 510.368C1209.79 510.998 1209.64 511.755 1209.77 512.49H1216.1C1215.91 512 1215.73 511.44 1215.53 510.91Z" fill="url(#paint41_linear_1016_234)"/>
<path d="M939.209 301.566L832.285 336.577L867.295 443.501L974.22 408.491L939.209 301.566Z" stroke="url(#paint42_linear_1016_234)" stroke-width="6" stroke-linecap="round" stroke-linejoin="round"/>
<path d="M867 442.5L939.21 301.49" stroke="url(#paint43_linear_1016_234)" stroke-width="6" stroke-linecap="round" stroke-linejoin="round"/>
<path d="M832.289 336.51L974.229 408.42" stroke="url(#paint44_linear_1016_234)" stroke-width="6" stroke-linecap="round" stroke-linejoin="round"/>
<path d="M3 869.6H1375.26" stroke="url(#paint45_linear_1016_234)" stroke-width="6" stroke-linecap="round" stroke-linejoin="round"/>
<path d="M681.898 778.14L681.598 777.4L680.398 776.52L681.898 778.14Z" fill="url(#paint46_linear_1016_234)"/>
<path d="M641 776C641 776 662 782.34 673.22 792.23L671 790C662.15 782.46 643.92 776.32 641 776Z" fill="url(#paint47_linear_1016_234)"/>
<path d="M673.172 792.26L674.702 793.87C674.502 793.61 674.292 793.35 674.072 793.09C673.782 792.81 673.482 792.54 673.172 792.26Z" fill="url(#paint48_linear_1016_234)"/>
<path d="M674.07 793.09C674.53 793.53 674.97 793.98 675.39 794.43C675 794 674.53 793.53 674.07 793.09Z" fill="url(#paint49_linear_1016_234)"/>
<path d="M676.792 796.06C676.422 795.58 676.022 795.11 675.602 794.65C676.002 795.11 676.422 795.58 676.792 796.06Z" fill="url(#paint50_linear_1016_234)"/>
<path d="M652.23 760.63L680.151 776.25C669.531 764.66 652.23 760.63 652.23 760.63Z" fill="url(#paint51_linear_1016_234)"/>
<path d="M561.169 381.39V427.39L580.089 430.96C583.349 435.65 620.089 493.42 539.149 500.47C486.369 505.07 428.149 474.1 396.859 437.39L448.689 423.24L463.799 327.34" stroke="url(#paint52_linear_1016_234)" stroke-width="6" stroke-linecap="round" stroke-linejoin="round"/>
</g>
<defs>
<linearGradient id="paint0_linear_1016_234" x1="754.71" y1="552.35" x2="754.71" y2="752.88" gradientUnits="userSpaceOnUse">
<stop stop-color="#108dff"/>
<stop offset="1" stop-color="#06162E"/>
</linearGradient>
<linearGradient id="paint1_linear_1016_234" x1="613.548" y1="354.77" x2="613.548" y2="454.91" gradientUnits="userSpaceOnUse">
<stop stop-color="#108dff"/>
<stop offset="1" stop-color="#06162E"/>
</linearGradient>
<linearGradient id="paint2_linear_1016_234" x1="226.866" y1="226.157" x2="226.866" y2="866.88" gradientUnits="userSpaceOnUse">
<stop stop-color="#108dff"/>
<stop offset="1" stop-color="#06162E"/>
</linearGradient>
<linearGradient id="paint3_linear_1016_234" x1="544.323" y1="789.89" x2="544.323" y2="869.71" gradientUnits="userSpaceOnUse">
<stop stop-color="#108dff"/>
<stop offset="1" stop-color="#06162E"/>
</linearGradient>
<linearGradient id="paint4_linear_1016_234" x1="507.483" y1="427.8" x2="507.483" y2="747.91" gradientUnits="userSpaceOnUse">
<stop stop-color="#108dff"/>
<stop offset="1" stop-color="#06162E"/>
</linearGradient>
<linearGradient id="paint5_linear_1016_234" x1="402.202" y1="0.0100098" x2="402.202" y2="85.57" gradientUnits="userSpaceOnUse">
<stop stop-color="#108dff"/>
<stop offset="1" stop-color="#06162E"/>
</linearGradient>
<linearGradient id="paint6_linear_1016_234" x1="479.124" y1="73.4263" x2="479.124" y2="383.88" gradientUnits="userSpaceOnUse">
<stop stop-color="#108dff"/>
<stop offset="1" stop-color="#06162E"/>
</linearGradient>
<linearGradient id="paint7_linear_1016_234" x1="427.525" y1="236.728" x2="427.525" y2="307.742" gradientUnits="userSpaceOnUse">
<stop stop-color="#108dff"/>
<stop offset="1" stop-color="#06162E"/>
</linearGradient>
<linearGradient id="paint8_linear_1016_234" x1="536.95" y1="156.07" x2="536.95" y2="381.836" gradientUnits="userSpaceOnUse">
<stop stop-color="#108dff"/>
<stop offset="1" stop-color="#06162E"/>
</linearGradient>
<linearGradient id="paint9_linear_1016_234" x1="584.911" y1="221.49" x2="584.911" y2="297.27" gradientUnits="userSpaceOnUse">
<stop stop-color="#108dff"/>
<stop offset="1" stop-color="#06162E"/>
</linearGradient>
<linearGradient id="paint10_linear_1016_234" x1="538.595" y1="213.596" x2="538.595" y2="223.08" gradientUnits="userSpaceOnUse">
<stop stop-color="#108dff"/>
<stop offset="1" stop-color="#06162E"/>
</linearGradient>
<linearGradient id="paint11_linear_1016_234" x1="554.677" y1="321.41" x2="554.677" y2="332.038" gradientUnits="userSpaceOnUse">
<stop stop-color="#108dff"/>
<stop offset="1" stop-color="#06162E"/>
</linearGradient>
<linearGradient id="paint12_linear_1016_234" x1="617.16" y1="216.881" x2="617.16" y2="223.27" gradientUnits="userSpaceOnUse">
<stop stop-color="#108dff"/>
<stop offset="1" stop-color="#06162E"/>
</linearGradient>
<linearGradient id="paint13_linear_1016_234" x1="542.036" y1="259.905" x2="554.768" y2="260.346" gradientUnits="userSpaceOnUse">
<stop stop-color="#108dff"/>
<stop offset="1" stop-color="#06162E"/>
</linearGradient>
<linearGradient id="paint14_linear_1016_234" x1="609.755" y1="261.863" x2="622.487" y2="262.303" gradientUnits="userSpaceOnUse">
<stop stop-color="#108dff"/>
<stop offset="1" stop-color="#06162E"/>
</linearGradient>
<linearGradient id="paint15_linear_1016_234" x1="677.235" y1="725.7" x2="677.235" y2="775.2" gradientUnits="userSpaceOnUse">
<stop stop-color="#108dff"/>
<stop offset="1" stop-color="#06162E"/>
</linearGradient>
<linearGradient id="paint16_linear_1016_234" x1="490.562" y1="562.779" x2="490.562" y2="805.043" gradientUnits="userSpaceOnUse">
<stop stop-color="#108dff"/>
<stop offset="1" stop-color="#06162E"/>
</linearGradient>
<linearGradient id="paint17_linear_1016_234" x1="658.9" y1="776" x2="658.9" y2="796.06" gradientUnits="userSpaceOnUse">
<stop stop-color="#108dff"/>
<stop offset="1" stop-color="#06162E"/>
</linearGradient>
<linearGradient id="paint18_linear_1016_234" x1="666.19" y1="760.63" x2="666.19" y2="776.25" gradientUnits="userSpaceOnUse">
<stop stop-color="#108dff"/>
<stop offset="1" stop-color="#06162E"/>
</linearGradient>
<linearGradient id="paint19_linear_1016_234" x1="656.843" y1="512.46" x2="656.843" y2="869" gradientUnits="userSpaceOnUse">
<stop stop-color="#108dff"/>
<stop offset="1" stop-color="#06162E"/>
</linearGradient>
<linearGradient id="paint20_linear_1016_234" x1="553.73" y1="815.93" x2="553.73" y2="854.08" gradientUnits="userSpaceOnUse">
<stop stop-color="#108dff"/>
<stop offset="1" stop-color="#06162E"/>
</linearGradient>
<linearGradient id="paint21_linear_1016_234" x1="969.511" y1="293.143" x2="968.281" y2="311.713" gradientUnits="userSpaceOnUse">
<stop stop-color="#108dff"/>
<stop offset="1" stop-color="#06162E"/>
</linearGradient>
<linearGradient id="paint22_linear_1016_234" x1="968.912" y1="293.8" x2="968.912" y2="311.09" gradientUnits="userSpaceOnUse">
<stop stop-color="#108dff"/>
<stop offset="1" stop-color="#06162E"/>
</linearGradient>
<linearGradient id="paint23_linear_1016_234" x1="952.403" y1="264.943" x2="951.161" y2="282.693" gradientUnits="userSpaceOnUse">
<stop stop-color="#108dff"/>
<stop offset="1" stop-color="#06162E"/>
</linearGradient>
<linearGradient id="paint24_linear_1016_234" x1="933.593" y1="308.94" x2="933.593" y2="310.92" gradientUnits="userSpaceOnUse">
<stop stop-color="#108dff"/>
<stop offset="1" stop-color="#06162E"/>
</linearGradient>
<linearGradient id="paint25_linear_1016_234" x1="934.203" y1="299.68" x2="934.203" y2="301.66" gradientUnits="userSpaceOnUse">
<stop stop-color="#108dff"/>
<stop offset="1" stop-color="#06162E"/>
</linearGradient>
<linearGradient id="paint26_linear_1016_234" x1="934.809" y1="290.42" x2="934.809" y2="292.4" gradientUnits="userSpaceOnUse">
<stop stop-color="#108dff"/>
<stop offset="1" stop-color="#06162E"/>
</linearGradient>
<linearGradient id="paint27_linear_1016_234" x1="950.752" y1="262.6" x2="950.752" y2="276.42" gradientUnits="userSpaceOnUse">
<stop stop-color="#108dff"/>
<stop offset="1" stop-color="#06162E"/>
</linearGradient>
<linearGradient id="paint28_linear_1016_234" x1="1066.75" y1="163.254" x2="1056.28" y2="195.054" gradientUnits="userSpaceOnUse">
<stop stop-color="#108dff"/>
<stop offset="1" stop-color="#06162E"/>
</linearGradient>
<linearGradient id="paint29_linear_1016_234" x1="1093.03" y1="162.91" x2="1093.03" y2="214.73" gradientUnits="userSpaceOnUse">
<stop stop-color="#108dff"/>
<stop offset="1" stop-color="#06162E"/>
</linearGradient>
<linearGradient id="paint30_linear_1016_234" x1="1137.47" y1="468.67" x2="1137.47" y2="474.37" gradientUnits="userSpaceOnUse">
<stop stop-color="#108dff"/>
<stop offset="1" stop-color="#06162E"/>
</linearGradient>
<linearGradient id="paint31_linear_1016_234" x1="1074.72" y1="381.29" x2="1074.72" y2="459.11" gradientUnits="userSpaceOnUse">
<stop stop-color="#108dff"/>
<stop offset="1" stop-color="#06162E"/>
</linearGradient>
<linearGradient id="paint32_linear_1016_234" x1="1020.46" y1="365.53" x2="1020.46" y2="376.11" gradientUnits="userSpaceOnUse">
<stop stop-color="#108dff"/>
<stop offset="1" stop-color="#06162E"/>
</linearGradient>
<linearGradient id="paint33_linear_1016_234" x1="1071.78" y1="262.7" x2="1071.78" y2="353.43" gradientUnits="userSpaceOnUse">
<stop stop-color="#108dff"/>
<stop offset="1" stop-color="#06162E"/>
</linearGradient>
<linearGradient id="paint34_linear_1016_234" x1="1121.16" y1="250.96" x2="1121.16" y2="256.66" gradientUnits="userSpaceOnUse">
<stop stop-color="#108dff"/>
<stop offset="1" stop-color="#06162E"/>
</linearGradient>
<linearGradient id="paint35_linear_1016_234" x1="1183.91" y1="266.22" x2="1183.91" y2="344.03" gradientUnits="userSpaceOnUse">
<stop stop-color="#108dff"/>
<stop offset="1" stop-color="#06162E"/>
</linearGradient>
<linearGradient id="paint36_linear_1016_234" x1="1238.17" y1="349.22" x2="1238.17" y2="359.8" gradientUnits="userSpaceOnUse">
<stop stop-color="#108dff"/>
<stop offset="1" stop-color="#06162E"/>
</linearGradient>
<linearGradient id="paint37_linear_1016_234" x1="1186.85" y1="371.89" x2="1186.85" y2="462.62" gradientUnits="userSpaceOnUse">
<stop stop-color="#108dff"/>
<stop offset="1" stop-color="#06162E"/>
</linearGradient>
<linearGradient id="paint38_linear_1016_234" x1="1178.74" y1="408.65" x2="1178.74" y2="514.75" gradientUnits="userSpaceOnUse">
<stop stop-color="#108dff"/>
<stop offset="1" stop-color="#06162E"/>
</linearGradient>
<linearGradient id="paint39_linear_1016_234" x1="1144" y1="401.18" x2="1144" y2="416.36" gradientUnits="userSpaceOnUse">
<stop stop-color="#108dff"/>
<stop offset="1" stop-color="#06162E"/>
</linearGradient>
<linearGradient id="paint40_linear_1016_234" x1="1031.19" y1="512.49" x2="1031.19" y2="868.78" gradientUnits="userSpaceOnUse">
<stop stop-color="#108dff"/>
<stop offset="1" stop-color="#06162E"/>
</linearGradient>
<linearGradient id="paint41_linear_1016_234" x1="1212.91" y1="508.975" x2="1212.91" y2="512.49" gradientUnits="userSpaceOnUse">
<stop stop-color="#108dff"/>
<stop offset="1" stop-color="#06162E"/>
</linearGradient>
<linearGradient id="paint42_linear_1016_234" x1="885.747" y1="319.072" x2="920.757" y2="425.996" gradientUnits="userSpaceOnUse">
<stop stop-color="#108dff"/>
<stop offset="1" stop-color="#06162E"/>
</linearGradient>
<linearGradient id="paint43_linear_1016_234" x1="903.105" y1="301.49" x2="903.105" y2="442.5" gradientUnits="userSpaceOnUse">
<stop stop-color="#108dff"/>
<stop offset="1" stop-color="#06162E"/>
</linearGradient>
<linearGradient id="paint44_linear_1016_234" x1="903.259" y1="336.51" x2="903.259" y2="408.42" gradientUnits="userSpaceOnUse">
<stop stop-color="#108dff"/>
<stop offset="1" stop-color="#06162E"/>
</linearGradient>
<linearGradient id="paint45_linear_1016_234" x1="689.13" y1="869.6" x2="689.13" y2="870.6" gradientUnits="userSpaceOnUse">
<stop stop-color="#108dff"/>
<stop offset="1" stop-color="#06162E"/>
</linearGradient>
<linearGradient id="paint46_linear_1016_234" x1="681.148" y1="776.52" x2="681.148" y2="778.14" gradientUnits="userSpaceOnUse">
<stop stop-color="#108dff"/>
<stop offset="1" stop-color="#06162E"/>
</linearGradient>
<linearGradient id="paint47_linear_1016_234" x1="657.11" y1="776" x2="657.11" y2="792.23" gradientUnits="userSpaceOnUse">
<stop stop-color="#108dff"/>
<stop offset="1" stop-color="#06162E"/>
</linearGradient>
<linearGradient id="paint48_linear_1016_234" x1="673.937" y1="792.26" x2="673.937" y2="793.87" gradientUnits="userSpaceOnUse">
<stop stop-color="#108dff"/>
<stop offset="1" stop-color="#06162E"/>
</linearGradient>
<linearGradient id="paint49_linear_1016_234" x1="674.73" y1="793.09" x2="674.73" y2="794.43" gradientUnits="userSpaceOnUse">
<stop stop-color="#108dff"/>
<stop offset="1" stop-color="#06162E"/>
</linearGradient>
<linearGradient id="paint50_linear_1016_234" x1="676.197" y1="794.65" x2="676.197" y2="796.06" gradientUnits="userSpaceOnUse">
<stop stop-color="#108dff"/>
<stop offset="1" stop-color="#06162E"/>
</linearGradient>
<linearGradient id="paint51_linear_1016_234" x1="666.19" y1="760.63" x2="666.19" y2="776.25" gradientUnits="userSpaceOnUse">
<stop stop-color="#108dff"/>
<stop offset="1" stop-color="#06162E"/>
</linearGradient>
<linearGradient id="paint52_linear_1016_234" x1="494.037" y1="327.34" x2="494.037" y2="500.925" gradientUnits="userSpaceOnUse">
<stop stop-color="#108dff"/>
<stop offset="1" stop-color="#06162E"/>
</linearGradient>
<clipPath id="clip0_1016_234">
<rect width="1378.26" height="872.6" fill="white"/>
</clipPath>
</defs>
</svg>
