<svg width="251" height="251" viewBox="0 0 251 251" fill="none" xmlns="http://www.w3.org/2000/svg">
<path d="M33.9671 72.286C32.9909 72.0047 14.0259 67.411 13.6571 67.321C12.6649 67.0571 11.6397 66.938 10.6134 66.9672C6.31461 67.246 5.11336 72.526 10.3359 75.546C12.8709 77.011 15.6209 78.1222 18.2234 79.436C20.5097 80.3493 22.4439 81.9699 23.7434 84.061C23.8184 84.1808 23.9337 84.2699 24.0686 84.3121C24.2035 84.3543 24.3491 84.3469 24.479 84.2913C24.609 84.2356 24.7147 84.1353 24.7772 84.0084C24.8396 83.8816 24.8547 83.7367 24.8196 83.5997C23.8009 78.506 12.3709 76.206 9.36711 72.9747C8.04961 71.5572 7.90711 68.9647 10.1984 68.516C11.7959 68.2035 11.7771 68.4197 31.7834 73.3135C33.4084 73.711 35.8546 74.0835 36.7496 75.7272C38.2771 78.5297 33.3121 81.7897 34.6434 85.4585C34.6794 85.564 34.7543 85.6519 34.8529 85.7042C34.9514 85.7565 35.0662 85.7693 35.1738 85.74C35.2815 85.7107 35.3739 85.6415 35.4323 85.5465C35.4908 85.4515 35.5108 85.3378 35.4884 85.2285C34.7384 82.136 39.5971 79.3335 38.3184 75.6035C37.6634 73.6935 35.7484 72.801 33.9671 72.286Z" fill="url(#paint0_linear_1021_663)"/>
<path d="M106.273 225.078C105.31 220.768 99.7363 220.434 93.3275 218.528C90.9465 218.022 88.7875 216.773 87.1613 214.962C86.7 214.53 86.0813 215.193 86.27 215.684C88.1088 220.46 99.8875 220.719 103.413 223.294C104.905 224.384 105.645 226.852 103.581 227.784C101.8 228.588 99.4563 228.123 97.5813 228.014C94.9563 227.862 84.5275 227.284 81.9563 227.139C80.1575 227.037 77.5813 227.2 76.175 225.832C73.7613 223.472 78.34 219.172 76.3138 215.707C76.0363 215.23 75.2725 215.535 75.515 216.075C76.8563 219.063 72.4138 222.737 74.5925 226.223C75.6975 227.992 77.9288 228.42 79.865 228.559C80.6375 228.615 96.0663 229.455 96.8388 229.498C99.0075 229.617 101.454 230.043 103.573 229.39C104.495 229.163 105.292 228.586 105.796 227.781C106.3 226.976 106.471 226.007 106.273 225.078Z" fill="url(#paint1_linear_1021_663)"/>
<path d="M168.892 63.1084C169.382 61.4033 169.279 59.5823 168.601 57.943C167.922 56.3037 166.707 54.943 165.155 54.0834C164.115 53.555 162.971 53.2619 161.804 53.2247C160.638 53.1876 159.477 53.4073 158.405 53.8684C154.11 55.7434 152.932 61.2322 154.405 64.8147C156.907 70.8759 167.009 70.5459 168.892 63.1084ZM159.99 61.4834C159.888 61.1414 159.92 60.7731 160.08 60.454C160.241 60.1349 160.517 59.8892 160.853 59.7673C161.188 59.6454 161.558 59.6564 161.885 59.7981C162.213 59.9399 162.474 60.2016 162.615 60.5297C162.692 60.7051 162.733 60.8945 162.733 61.0861C162.734 61.2777 162.696 61.4674 162.62 61.6435C162.545 61.8196 162.434 61.9783 162.295 62.1098C162.155 62.2412 161.99 62.3427 161.81 62.4078C161.63 62.4729 161.438 62.5004 161.247 62.4884C161.056 62.4764 160.869 62.4252 160.699 62.3381C160.528 62.2509 160.377 62.1297 160.255 61.9818C160.133 61.8339 160.043 61.6626 159.99 61.4784V61.4834Z" fill="url(#paint2_linear_1021_663)"/>
<path d="M222.655 63.6935C222.58 62.371 222.78 59.9946 221.364 59.2959C220.928 59.1239 220.464 59.0353 219.995 59.0346C207.557 58.9096 175.794 59.5121 170.32 59.5121C170.536 60.5799 170.573 61.6763 170.428 62.756C179.468 62.6172 188.493 62.4171 197.533 62.2334C197.588 65.1271 198.234 72.4311 198.283 72.9336C198.33 73.3948 198.283 74.0748 198.729 74.3636C199.854 74.6493 201.013 74.7755 202.173 74.7386C205.057 74.8098 220.733 74.8021 222.267 73.7546C222.767 73.4109 222.705 72.6171 222.728 72.0784C222.843 69.2839 222.819 66.4856 222.655 63.6935Z" fill="url(#paint3_linear_1021_663)"/>
<path d="M10.9838 172.775C29.6488 168.985 32.6776 167.177 65.7163 163.227C66.5313 163.13 66.5776 161.841 65.7163 161.905C50.6901 163.01 27.0226 166.915 10.7226 171.806C10.5941 171.841 10.4847 171.925 10.4183 172.04C10.352 172.155 10.3342 172.292 10.3688 172.421C10.4035 172.549 10.4877 172.659 10.6031 172.725C10.7184 172.791 10.8554 172.809 10.9838 172.775Z" fill="url(#paint4_linear_1021_663)"/>
<path d="M95.8043 160.337C111.342 159.646 124.579 158.816 147.524 158.816C160.946 158.816 160.629 159.087 162.053 158.738C162.156 158.706 162.247 158.641 162.311 158.554C162.375 158.467 162.409 158.362 162.409 158.254C162.409 158.146 162.375 158.04 162.311 157.953C162.247 157.866 162.156 157.802 162.053 157.769C161.054 157.55 160.03 157.462 159.008 157.508C132.808 157.133 114.789 158.024 95.7882 159.353C95.1594 159.397 95.1431 160.367 95.8043 160.337Z" fill="url(#paint5_linear_1021_663)"/>
<path d="M178.551 158.552C186.163 159.323 203.598 159.374 236.958 165.026C239.281 165.485 241.626 165.818 243.984 166.026C244.477 166.056 244.538 165.336 244.092 165.196C235.342 162.446 192.114 157.446 178.551 157.554C178.424 157.563 178.306 157.62 178.22 157.712C178.134 157.805 178.086 157.927 178.086 158.053C178.086 158.18 178.134 158.302 178.22 158.394C178.306 158.487 178.424 158.543 178.551 158.552Z" fill="url(#paint6_linear_1021_663)"/>
<path d="M162.957 82.2654C161.965 81.8904 161.627 82.8117 157.56 84.2792C155.634 84.9742 153.659 85.4917 151.685 86.0779C151.209 86.2192 151.269 87.0279 151.81 86.9854C154.98 86.6434 158.068 85.7647 160.943 84.3867C161.713 84.0367 162.997 83.6929 163.234 82.7729C163.261 82.6689 163.247 82.5587 163.196 82.4645C163.144 82.3703 163.059 82.2991 162.957 82.2654Z" fill="url(#paint7_linear_1021_663)"/>
<path d="M163.743 84.0692C160.942 85.7257 157.96 87.0565 154.856 88.0354C154.074 88.2729 152.651 88.3317 152.243 89.1279C152.175 89.2549 152.158 89.4029 152.195 89.5421C152.232 89.6813 152.32 89.8013 152.442 89.8779C152.891 90.2167 153.257 90.1579 155.517 89.4629C158.723 88.4856 161.732 86.9504 164.404 84.9279C164.896 84.5417 164.261 83.7704 163.743 84.0692Z" fill="url(#paint8_linear_1021_663)"/>
<path d="M163.128 87.444C156.51 90.5077 155.837 89.7827 154.753 90.549C154.648 90.6148 154.568 90.7125 154.523 90.8276C154.479 90.9427 154.472 91.0692 154.505 91.1882C154.538 91.3072 154.608 91.4125 154.705 91.4885C154.803 91.5645 154.922 91.6072 155.045 91.6102C155.803 91.6041 156.552 91.442 157.244 91.134C159.481 90.4601 161.623 89.504 163.619 88.289C163.729 88.223 163.809 88.1162 163.841 87.9917C163.873 87.8672 163.855 87.7351 163.791 87.624C163.726 87.5128 163.62 87.4316 163.496 87.3979C163.372 87.3643 163.24 87.3808 163.128 87.444Z" fill="url(#paint9_linear_1021_663)"/>
<path d="M149.582 97.7765C149.712 97.6425 149.785 97.4632 149.785 97.2765C149.785 97.0899 149.712 96.9106 149.582 96.7765C149.428 96.6378 149.29 96.499 149.136 96.3615C150.511 95.6603 151.936 95.9578 155.84 94.9865C158.494 94.3718 161.062 93.4265 163.481 92.1728C163.57 92.1178 163.637 92.0326 163.669 91.9325C163.701 91.8325 163.696 91.7244 163.655 91.6278C163.614 91.5311 163.54 91.4523 163.446 91.4058C163.352 91.3592 163.244 91.348 163.142 91.374C159.129 92.9148 154.941 93.9576 150.673 94.479C149.743 94.5542 148.843 94.8494 148.048 95.3403C146.787 94.1715 143.282 90.8665 142.743 90.389C144.787 89.6803 145.656 87.819 147.31 86.084C149.991 83.2753 152.912 84.6865 155.382 82.794C156.087 82.254 155.443 81.044 154.66 81.564C153.35 82.2658 151.911 82.6948 150.431 82.8253C145.361 83.834 145.323 87.9678 141.913 89.7003C141.516 89.4276 141.058 89.2545 140.58 89.1955C140.101 89.1366 139.615 89.1935 139.163 89.3615C135.017 90.3629 131.036 91.9523 127.34 94.0815C128.472 87.854 129.635 75.5378 127.063 69.9903C127.878 69.684 127.277 65.4153 127.188 64.3778C126.243 53.6478 123.222 39.139 115.873 31.2928C113.765 28.8011 110.783 27.211 107.54 26.849C107.033 26.7865 106.923 27.6228 107.415 27.7415C114.717 29.4915 118.922 37.4115 121.467 44.469C120.67 45.0633 119.988 45.7978 119.453 46.6365C117.703 48.6365 117.91 51.6978 117.762 53.6165C116.041 53.4903 114.312 53.5158 112.596 53.6928C106.387 54.1098 100.216 54.9733 94.131 56.2765C87.766 57.639 76.9722 60.5865 71.561 64.194C66.7972 67.3703 65.5372 71.7378 66.3185 74.444C63.5972 74.9053 62.121 77.1653 60.3385 79.1028C58.7128 80.0972 57.2502 81.3363 56.0022 82.7765C48.0593 91.2056 40.9539 100.386 34.786 110.189C36.3527 103.101 37.1465 95.8634 37.1535 88.604C37.1535 87.4503 36.8547 87.0415 35.5547 86.959C33.341 86.8178 31.111 86.6903 28.8972 86.559C27.5222 86.4778 23.9797 85.5953 22.8085 86.2203C20.3397 87.539 18.3085 94.6153 17.3197 97.1365C14.254 104.773 12.5156 112.878 12.1797 121.1C12.0035 128.563 13.2422 137.164 19.5747 141.1C25.5572 144.82 33.5035 142.744 39.4697 139.025C46.9247 134.379 62.6547 115.759 65.1447 115.872C69.4047 116.063 70.9022 181.174 73.7397 209.247C73.9772 211.6 74.6047 212.429 77.5835 212.707C88.4347 213.718 88.4097 213.912 88.9447 213.275C89.1347 212.998 89.2414 212.672 89.2522 212.337C93.9779 176.542 95.2701 140.377 93.111 104.337C93.0172 102.722 93.236 100.908 93.296 99.1403C93.4804 98.5572 93.8032 98.0275 94.2368 97.5963C94.6704 97.165 95.2019 96.8452 95.786 96.664C97.1697 97.8178 99.1385 97.7115 100.922 97.464C102.355 97.2638 103.781 97.0136 105.196 96.714C106.539 96.6245 107.832 96.167 108.932 95.3915C108.974 95.348 109.005 95.2954 109.023 95.2378C109.341 100.708 110.416 107.164 113.773 111.52C122.182 122.412 140.346 108.093 149.582 97.7765ZM126.028 68.2765C125.089 67.0556 123.842 66.1065 122.415 65.5265C120.849 64.9291 119.444 63.9761 118.31 62.7428C117.521 61.74 116.979 60.5659 116.727 59.3153C117.163 58.8312 117.534 58.2936 117.833 57.7153C119.236 57.9806 120.58 58.4963 121.8 59.2378C122.177 59.5366 122.579 59.8042 123 60.0378C124.625 60.714 124.388 58.3215 124.75 57.3778C125.352 60.5228 125.857 66.3865 126.028 68.2728V68.2765ZM65.7597 89.474C63.9535 88.239 62.6347 86.6653 58.3035 86.0615C57.7797 85.989 57.7347 85.1978 58.3035 85.2003C59.8297 85.2242 61.3357 85.5536 62.7327 86.1689C64.1296 86.7842 65.3892 87.6729 66.4372 88.7828C66.746 89.1928 66.161 89.749 65.7597 89.474ZM70.1722 79.2503C67.832 78.3357 65.3098 77.9829 62.8085 78.2203C65.6247 75.1228 67.611 75.2615 72.0947 77.0828C71.3358 77.6912 70.6857 78.4241 70.1722 79.2503ZM71.4022 79.6653C71.9972 78.8954 72.7264 78.2395 73.5547 77.729C78.1156 79.7446 82.4716 82.1951 86.5622 85.0465C85.753 85.4242 85.0104 85.9308 84.3635 86.5465C80.4049 83.6279 76.0375 81.3092 71.4022 79.6653ZM85.5272 98.5603C84.8378 98.1254 84.2029 97.6097 83.636 97.024C81.5864 95.4682 79.1922 94.4289 76.656 93.994C76.5668 93.9706 76.4894 93.9152 76.4385 93.8383C76.3876 93.7614 76.3669 93.6685 76.3802 93.5772C76.3935 93.486 76.4399 93.4029 76.5106 93.3437C76.5813 93.2846 76.6713 93.2535 76.7635 93.2565C80.7722 93.2228 85.6085 96.6503 86.096 98.1453C86.211 98.4828 85.8085 98.684 85.5322 98.5603H85.5272ZM93.1985 96.409C92.551 92.3065 88.9485 89.6428 85.481 87.2915C85.681 87.1378 85.8772 86.979 86.0797 86.8453C86.6851 86.5918 87.2756 86.3043 87.8485 85.984C91.016 88.3878 94.6722 91.3803 94.936 95.2703C94.2902 95.5341 93.7018 95.9209 93.2035 96.409H93.1985ZM127.735 112.674C119.381 116.038 112.956 113.549 110.822 99.4678C110.003 94.0565 110.353 88.5928 110.316 83.1553C110.31 83.0451 110.262 82.9414 110.182 82.8655C110.102 82.7896 109.996 82.7472 109.885 82.7472C109.775 82.7472 109.669 82.7896 109.589 82.8655C109.509 82.9414 109.461 83.0451 109.455 83.1553C108.977 87.0772 108.832 91.0327 109.023 94.979C109.003 94.9251 108.969 94.8772 108.926 94.8394C108.882 94.8017 108.83 94.7753 108.773 94.7628C107.417 94.4265 107.236 95.0128 101.716 95.9778C100.016 96.4132 98.2403 96.4606 96.5197 96.1165C96.5503 96.0328 96.5659 95.9444 96.566 95.8553C96.611 89.9803 90.4135 85.679 85.191 82.264C82.3163 80.3852 79.3164 78.7055 76.2122 77.2365C73.5085 75.9565 70.3697 74.3003 67.2947 74.3615C66.8747 66.3615 75.0835 63.3215 82.7947 60.7703C100.278 54.9853 114.385 55.1615 117.635 54.7278C117.452 55.8548 117.088 56.9451 116.558 57.9565C116.532 57.8352 116.463 57.7274 116.364 57.6532C116.264 57.5789 116.141 57.5432 116.017 57.5527C115.893 57.5621 115.777 57.6161 115.69 57.7046C115.603 57.7931 115.551 57.9101 115.543 58.034C115.449 59.4179 115.703 60.8034 116.283 62.0632C116.864 63.3231 117.751 64.4168 118.865 65.244C121.225 67.029 124.008 66.994 125.676 70.5953C126.956 73.3603 126.966 76.6978 127.028 79.6815C127.293 92.264 124.221 98.9803 123.892 102.097C123.832 102.667 124.661 102.819 124.922 102.374C125.92 100.259 126.609 98.0122 126.967 95.7015C127.059 95.7338 127.157 95.7436 127.254 95.7301C127.35 95.7166 127.442 95.6803 127.521 95.624C131.013 93.5715 134.768 92.0042 138.682 90.9653C139.728 90.6903 140.542 90.4278 141.432 91.1965C141.506 91.2603 147.972 97.2503 148.043 97.3153C142.341 103.604 135.696 109.469 127.735 112.674Z" fill="url(#paint10_linear_1021_663)"/>
<path d="M192.814 211.945C187.572 213.692 182.852 216.726 179.086 220.77C181.458 212.628 184.418 204.669 187.941 196.955C188.234 196.31 187.559 195.313 186.834 195.847C179.082 201.525 173.254 209.441 170.134 218.53C169.295 213.836 168.786 209.089 168.613 204.323C168.609 204.148 168.549 203.978 168.441 203.84C168.333 203.702 168.183 203.602 168.014 203.555C167.845 203.508 167.665 203.518 167.501 203.581C167.338 203.645 167.199 203.76 167.106 203.908C164.31 209.112 162.89 214.944 162.981 220.851C157.991 213.778 151.523 207.877 144.024 203.555C143.864 203.465 143.677 203.436 143.497 203.473C143.318 203.51 143.157 203.611 143.045 203.756C142.933 203.902 142.878 204.083 142.888 204.266C142.898 204.449 142.974 204.623 143.102 204.755C149.278 211.213 154.011 218.912 156.984 227.34C157.198 227.925 158.119 227.693 157.938 227.078C155.852 220.097 152.432 213.586 147.867 207.906C153.981 212.34 159.207 217.884 163.273 224.25C163.673 224.875 164.898 224.695 164.811 223.835C164.22 218.297 165.023 212.7 167.147 207.552C167.484 212.451 168.157 217.32 169.161 222.127C169.211 222.296 169.315 222.444 169.456 222.549C169.597 222.654 169.769 222.711 169.945 222.711C170.121 222.711 170.293 222.654 170.434 222.549C170.575 222.444 170.679 222.296 170.729 222.127C173.076 213.19 178.11 205.189 185.151 199.205C181.635 207.226 178.741 215.507 176.494 223.972C176.454 224.16 176.481 224.355 176.569 224.526C176.658 224.696 176.804 224.829 176.981 224.904C177.158 224.978 177.355 224.988 177.538 224.932C177.722 224.876 177.88 224.757 177.986 224.597C181.28 220.16 185.687 216.67 190.762 214.48C187.811 218.508 184.572 223.122 185.566 228.148C185.691 228.763 186.608 228.593 186.627 228.01C186.803 222.213 190.613 217.736 193.744 213.158C193.818 213.016 193.85 212.855 193.835 212.696C193.821 212.536 193.762 212.384 193.665 212.256C193.567 212.129 193.435 212.032 193.285 211.977C193.134 211.922 192.971 211.91 192.814 211.945Z" fill="url(#paint11_linear_1021_663)"/>
<path d="M236.461 54.6067C229.936 18.238 203.822 21.4817 165.815 22.3967C148.887 22.8051 131.975 23.4663 115.078 24.3805C111.236 24.5942 107.223 24.613 103.563 25.903C100.566 26.9991 97.9019 28.8505 95.8296 31.278C89.8196 38.1692 88.6196 47.6092 88.2971 56.6155C88.2846 56.9392 88.8309 57.0305 88.8809 56.693C90.0509 48.7092 90.8309 35.0192 100.766 28.7267C103.923 26.9389 107.484 25.9864 111.112 25.9592C127.502 24.918 143.937 24.383 160.341 23.9455C204.173 22.773 226.56 20.2905 234.155 50.4355C238.78 68.783 236.186 94.443 236.061 101.585C235.936 101.585 145.295 102.933 145.167 102.939C145.057 102.948 144.954 102.997 144.878 103.078C144.803 103.16 144.761 103.266 144.761 103.377C144.761 103.487 144.803 103.594 144.878 103.675C144.954 103.756 145.057 103.806 145.167 103.814C150.187 104.109 154.337 104.014 162.647 104.014C162.602 126.058 163.996 141.7 164.155 203.855C164.154 203.993 164.2 204.127 164.286 204.235C164.371 204.343 164.491 204.419 164.626 204.449C164.76 204.48 164.901 204.463 165.025 204.403C165.149 204.342 165.248 204.242 165.307 204.117C165.59 203.702 165.755 203.219 165.785 202.718C165.785 202.568 165.178 124.984 163.77 103.983C164.985 103.983 166.2 103.968 167.395 103.968C167.363 118.865 168.02 133.779 168.302 148.677C169.302 202.468 168.206 201.16 169.608 202.825C169.954 203.224 170.155 203.728 170.177 204.255C170.233 206.039 170.5 199.967 170.485 196.277C170.451 188.085 169.781 123.167 168.471 103.937L173.882 103.89C173.837 126.093 175.257 142.46 175.39 203.672C175.39 203.775 175.423 203.876 175.483 203.96C175.544 204.044 175.629 204.107 175.726 204.141C175.824 204.174 175.93 204.177 176.029 204.148C176.129 204.119 176.216 204.06 176.281 203.979C176.281 203.963 176.296 203.963 176.296 203.948C176.757 203.361 177.007 202.635 177.003 201.888C177.003 201.748 176.378 124.674 174.99 103.86C175.925 103.849 231.847 103.038 235.166 102.692C236.693 102.532 236.948 102.515 236.995 102.154C238.471 90.7117 239.183 69.7855 236.461 54.6067Z" fill="url(#paint12_linear_1021_663)"/>
<defs>
<linearGradient id="paint0_linear_1021_663" x1="22.7084" y1="66.9629" x2="22.7084" y2="85.7554" gradientUnits="userSpaceOnUse">
<stop stop-color="#108dff"/>
<stop offset="1" stop-color="#06162E"/>
</linearGradient>
<linearGradient id="paint1_linear_1021_663" x1="90.1668" y1="214.822" x2="90.1668" y2="229.745" gradientUnits="userSpaceOnUse">
<stop stop-color="#108dff"/>
<stop offset="1" stop-color="#06162E"/>
</linearGradient>
<linearGradient id="paint2_linear_1021_663" x1="161.499" y1="53.2207" x2="161.499" y2="69.0524" gradientUnits="userSpaceOnUse">
<stop stop-color="#108dff"/>
<stop offset="1" stop-color="#06162E"/>
</linearGradient>
<linearGradient id="paint3_linear_1021_663" x1="196.56" y1="59.0176" x2="196.56" y2="74.7642" gradientUnits="userSpaceOnUse">
<stop stop-color="#108dff" stop-opacity="0.580392"/>
<stop offset="1" stop-color="#06162E"/>
</linearGradient>
<linearGradient id="paint4_linear_1021_663" x1="38.3483" y1="161.902" x2="38.3483" y2="172.792" gradientUnits="userSpaceOnUse">
<stop stop-color="#108dff"/>
<stop offset="1" stop-color="#06162E"/>
</linearGradient>
<linearGradient id="paint5_linear_1021_663" x1="128.861" y1="157.422" x2="128.861" y2="160.338" gradientUnits="userSpaceOnUse">
<stop stop-color="#108dff"/>
<stop offset="1" stop-color="#06162E"/>
</linearGradient>
<linearGradient id="paint6_linear_1021_663" x1="211.239" y1="157.553" x2="211.239" y2="166.027" gradientUnits="userSpaceOnUse">
<stop stop-color="#108dff"/>
<stop offset="1" stop-color="#06162E"/>
</linearGradient>
<linearGradient id="paint7_linear_1021_663" x1="157.305" y1="82.1816" x2="157.305" y2="86.987" gradientUnits="userSpaceOnUse">
<stop stop-color="#108dff"/>
<stop offset="1" stop-color="#06162E"/>
</linearGradient>
<linearGradient id="paint8_linear_1021_663" x1="158.378" y1="84.002" x2="158.378" y2="90.0788" gradientUnits="userSpaceOnUse">
<stop stop-color="#108dff"/>
<stop offset="1" stop-color="#06162E"/>
</linearGradient>
<linearGradient id="paint9_linear_1021_663" x1="159.171" y1="87.3809" x2="159.171" y2="91.6102" gradientUnits="userSpaceOnUse">
<stop stop-color="#108dff"/>
<stop offset="1" stop-color="#06162E"/>
</linearGradient>
<linearGradient id="paint10_linear_1021_663" x1="87.927" y1="26.8457" x2="87.927" y2="213.642" gradientUnits="userSpaceOnUse">
<stop stop-color="#108dff"/>
<stop offset="1" stop-color="#06162E"/>
</linearGradient>
<linearGradient id="paint11_linear_1021_663" x1="168.363" y1="195.695" x2="168.363" y2="228.536" gradientUnits="userSpaceOnUse">
<stop stop-color="#108dff"/>
<stop offset="1" stop-color="#06162E"/>
</linearGradient>
<linearGradient id="paint12_linear_1021_663" x1="163.3" y1="21.9004" x2="163.3" y2="204.576" gradientUnits="userSpaceOnUse">
<stop stop-color="#108dff"/>
<stop offset="1" stop-color="#06162E"/>
</linearGradient>
</defs>
</svg>
