<svg width="250" height="162" viewBox="0 0 250 162" fill="none" xmlns="http://www.w3.org/2000/svg">
<path d="M213.605 88.7961C198.49 69.834 219.265 69.9389 227.355 55.4464C229.302 53.293 232.521 49.0399 233.444 44.365C234.253 40.2734 234.886 33.9465 233.312 27.042C231.612 19.5848 226.787 9.61031 213.456 4.44113C207.104 1.97813 199.47 0.535048 190.765 0.151984C183.844 -0.152521 176.23 0.220615 168.129 1.22291C155.244 2.81718 144.181 6.00269 135.049 10.1045C132.454 7.9223 129.254 5.97115 125.308 4.44104C118.956 1.97804 111.321 0.534951 102.617 0.151887C95.696 -0.152617 88.0823 0.220517 79.9814 1.22281C61.0845 3.56091 46.1054 9.32051 35.3918 16.3754C33.4014 16.014 31.3269 15.8222 29.1947 15.8222C14.2229 15.8222 2.08594 25.2468 2.08594 36.8728C2.08594 45.1819 8.28642 52.3656 17.2897 55.7889C17.8869 61.2038 18.554 67.997 19.039 75.0132C19.6816 84.3096 19.4434 92.4749 18.331 99.2823C16.9662 107.634 11.3577 118.915 11.3577 118.915C-1.13891 137.544 5.14656 156.703 7.34117 161.878H95.4894H154.104H242.252C248.417 146.504 233.861 114.208 213.605 88.7961ZM18.2433 110.697C18.1779 110.761 18.1139 110.825 18.049 110.889C19.3819 107.654 20.3962 103.924 21.0826 99.7162C22.2287 92.6898 22.4753 84.3005 21.815 74.7814C21.4856 70.0331 21.0726 65.3868 20.6527 61.1895C26.7137 76.6418 34.541 94.7766 18.2433 110.697ZM156.88 6.16906C160.298 5.32389 164.252 4.52505 168.52 3.99139C180.954 2.43635 198.669 1.70449 212.452 7.04889C224.642 11.7753 229.047 20.8692 230.597 27.6656C231.751 32.7255 231.358 37.804 230.321 42.1626C230.296 41.3173 230.239 40.4428 230.148 39.5366C226.938 7.64291 185.678 5.9953 185.678 5.9953C174.613 5.6022 165.087 5.68106 156.88 6.16906Z" fill="#FEE4CB"/>
<mask id="mask0_1163_200" style="mask-type:luminance" maskUnits="userSpaceOnUse" x="1" y="0" width="243" height="162">
<path d="M213.414 88.7474C198.299 69.7852 219.073 69.8902 227.164 55.3977C229.11 53.2443 232.329 48.9912 233.253 44.3163C234.062 40.2247 234.695 33.8978 233.121 26.9933C231.421 19.5361 226.596 9.56161 213.264 4.39243C206.912 1.92943 199.278 0.486342 190.574 0.103278C183.653 -0.201227 176.039 0.171909 167.938 1.1742C155.053 2.76847 143.99 5.95399 134.858 10.0558C132.263 7.87359 129.062 5.92245 125.116 4.39233C118.764 1.92933 111.13 0.486245 102.426 0.103181C95.5046 -0.201323 87.8909 0.17181 79.79 1.17411C60.8931 3.51221 45.914 9.2718 35.2004 16.3267C33.21 15.9653 31.1355 15.7735 29.0033 15.7735C14.0315 15.7735 1.89453 25.1981 1.89453 36.8241C1.89453 45.1332 8.09501 52.3169 17.0983 55.7402C17.6955 61.1551 18.3626 67.9483 18.8476 74.9645C19.4902 84.2609 19.252 92.4261 18.1396 99.2336C16.7748 107.585 11.1663 118.867 11.1663 118.867C-1.33032 137.496 4.95515 156.655 7.14977 161.829H95.298H153.913H242.061C248.225 146.456 233.67 114.159 213.414 88.7474ZM18.0519 110.648C17.9864 110.712 17.9225 110.776 17.8576 110.84C19.1905 107.606 20.2048 103.875 20.8912 99.6675C22.0373 92.6411 22.2839 84.2518 21.6236 74.7327C21.2942 69.9844 20.8812 65.3381 20.4613 61.1408C26.5223 76.5931 34.3496 94.7278 18.0519 110.648ZM156.688 6.12035C160.107 5.27518 164.061 4.47634 168.328 3.94268C180.762 2.38765 198.477 1.65578 212.261 7.00019C224.45 11.7266 228.856 20.8205 230.406 27.6169C231.559 32.6768 231.166 37.7553 230.13 42.1139C230.104 41.2686 230.048 40.3941 229.956 39.4879C226.746 7.59421 185.487 5.94659 185.487 5.94659C174.421 5.5535 164.896 5.63235 156.688 6.12035Z" fill="white"/>
</mask>
<g mask="url(#mask0_1163_200)">
<path opacity="0.5" d="M165.127 96.0352C164.766 94.3113 163.36 93.0254 161.68 93.0254C161.371 93.0254 161.072 93.069 160.787 93.1504C159.957 91.2042 158.157 89.8557 156.069 89.8557C155.529 89.8557 155.009 89.9459 154.519 90.1131C153.396 88.0715 151.354 86.7064 149.021 86.7064C146.246 86.7064 143.883 88.6388 142.987 91.3439C142.353 90.9561 141.623 90.7343 140.846 90.7343C138.413 90.7343 136.441 92.8977 136.441 95.5663C136.441 95.7245 136.449 95.8808 136.463 96.0352H165.127Z" fill="white"/>
<path opacity="0.5" d="M53.053 63.7935C52.692 62.0698 51.2861 60.7838 49.6053 60.7838C49.2968 60.7838 48.9976 60.8274 48.7123 60.9087C47.8828 58.9626 46.0825 57.6141 43.995 57.6141C43.4553 57.6141 42.9348 57.7043 42.4452 57.8715C41.3214 55.83 39.2796 54.4648 36.9471 54.4648C34.1719 54.4648 31.8083 56.3972 30.9128 59.1022C30.2787 58.7145 29.5489 58.4927 28.7716 58.4927C26.3392 58.4927 24.3672 60.656 24.3672 63.3246C24.3672 63.4829 24.3747 63.6391 24.3882 63.7935H53.053Z" fill="white"/>
<path opacity="0.5" d="M103.022 116.085C102.661 114.361 101.255 113.075 99.5742 113.075C99.2656 113.075 98.9663 113.118 98.681 113.2C97.8515 111.254 96.0513 109.905 93.9637 109.905C93.424 109.905 92.9035 109.995 92.414 110.163C91.2902 108.121 89.2484 106.756 86.9159 106.756C84.1408 106.756 81.7771 108.688 80.8815 111.393C80.2475 111.006 79.5177 110.784 78.7404 110.784C76.3079 110.784 74.3359 112.947 74.3359 115.616C74.3359 115.774 74.3433 115.93 74.357 116.085H103.022Z" fill="white"/>
<path opacity="0.5" d="M222.437 38.8463C222.256 37.9852 221.554 37.3428 220.714 37.3428C220.56 37.3428 220.411 37.3645 220.268 37.4052C219.854 36.4329 218.954 35.7592 217.911 35.7592C217.642 35.7592 217.382 35.8043 217.137 35.8878C216.575 34.8679 215.556 34.1859 214.39 34.1859C213.004 34.1859 211.823 35.1513 211.375 36.5027C211.059 36.309 210.694 36.1982 210.306 36.1982C209.091 36.1982 208.105 37.2789 208.105 38.6121C208.105 38.6911 208.109 38.7692 208.116 38.8463H222.437Z" fill="white"/>
<path opacity="0.5" d="M186.383 27.1225C186.823 25.0193 188.539 23.4501 190.59 23.4501C190.966 23.4501 191.331 23.5033 191.679 23.6026C192.691 21.2279 194.888 19.5826 197.435 19.5826C198.094 19.5826 198.729 19.6926 199.326 19.8966C200.698 17.4056 203.189 15.7399 206.035 15.7399C209.421 15.7399 212.305 18.0976 213.398 21.3982C214.171 20.9251 215.062 20.6545 216.01 20.6545C218.978 20.6545 221.384 23.2942 221.384 26.5503C221.384 26.7433 221.375 26.9341 221.359 27.1224H186.383V27.1225Z" fill="white"/>
<path opacity="0.5" d="M62.9453 36.9871C63.593 33.8942 66.1158 31.5867 69.1316 31.5867C69.6852 31.5867 70.2222 31.6648 70.7341 31.8109C72.2226 28.3189 75.4529 25.8994 79.1986 25.8994C80.1671 25.8994 81.101 26.0611 81.9793 26.3612C83.9959 22.6979 87.6595 20.2484 91.8448 20.2484C96.8243 20.2484 101.065 23.7157 102.672 28.5694C103.81 27.8737 105.12 27.4757 106.514 27.4757C110.879 27.4757 114.417 31.3575 114.417 36.1458C114.417 36.4298 114.404 36.7102 114.38 36.9871H62.9453Z" fill="white"/>
<path opacity="0.4" d="M214.143 56.71C213.706 57.5148 213.472 58.4406 212.998 59.2198C212.452 60.1184 211.628 60.76 210.822 61.3806C207.226 64.1509 203.505 66.9826 199.215 68.025C198.139 68.2865 196.997 68.4494 196.094 69.1423C194.226 70.5746 194.405 74.2086 196.403 75.4112C198.69 76.7873 202.136 75.1756 203.818 77.3615C204.503 78.2503 204.635 79.5294 205.305 80.4303C206.202 81.6339 207.779 81.8422 209.193 81.9435C210.161 82.0127 211.129 82.0725 212.098 82.1251C207.775 71.4943 217.944 68.7177 225.066 60.5095C224.862 60.4782 224.659 60.4449 224.456 60.4078C224.073 60.3374 223.67 60.2461 223.378 59.9644C223.086 59.6828 222.961 59.1479 223.216 58.8256C224.626 58.1649 226.061 57.4989 227.554 57.1591C227.905 56.5963 228.239 56.0104 228.552 55.398C229.225 54.5841 230.064 53.4698 230.894 52.1466C227.736 52.3117 224.587 52.5784 221.446 52.9959C218.682 53.363 215.566 54.0847 214.143 56.71Z" fill="white"/>
</g>
<path d="M22.3032 159.558C22.3032 159.558 42.1967 151.404 38.1744 145.595C38.1744 145.595 38.1101 143.515 30.6284 146.646C30.6284 146.646 27.6136 146.02 29.2027 143.18C30.7917 140.34 37.572 138.454 36.4321 134.586C35.2923 130.718 31.2247 134.262 28.8488 134.04C26.473 133.819 34.2638 123.307 32.4224 120.685C30.5811 118.063 27.1525 122.012 25.3889 121.711C23.6252 121.41 27.4043 106.204 18.9987 104.73C10.593 103.256 15.4721 112.463 16.9219 117.285C18.3717 122.106 12.5694 116.628 9.47004 120.027C6.37068 123.426 20.5038 127.185 17.0781 130.262C13.6525 133.338 11.4744 129.279 9.0898 131.674C5.23463 135.546 20.0266 138.013 17.8253 140.932C16.0699 143.26 12.6936 139.2 11.0375 140.832C9.38126 142.464 12.7175 153.491 22.3032 159.558Z" fill="#FEB546"/>
<path opacity="0.52" d="M38.4262 146.023C38.3966 145.962 38.3643 145.902 38.3301 145.842C37.7543 146.312 37.0962 146.809 36.3636 147.299C33.6728 149.101 29.4018 151.178 24.3006 150.887C24.5826 148.289 24.6887 145.464 24.6173 142.424C29.1562 137.428 33.1855 135.471 35.7665 134.709C35.9902 134.643 36.2063 134.585 36.4162 134.533C36.3963 134.468 36.3754 134.406 36.3538 134.345C36.1495 134.396 35.9394 134.452 35.7218 134.516C33.1397 135.275 29.1272 137.213 24.6102 142.131C24.6099 142.118 24.6097 142.106 24.6094 142.093C24.523 138.971 24.252 135.623 23.8001 132.079C23.9178 131.812 25.0535 129.273 26.8429 126.466C28.1282 124.45 29.9547 121.988 32.0776 120.285C32.0264 120.237 31.9741 120.194 31.9211 120.153C29.7852 121.875 27.9536 124.343 26.6643 126.365C25.1662 128.715 24.1238 130.879 23.7498 131.69C23.3968 128.99 22.94 126.177 22.3802 123.266C20.8189 115.146 18.8132 108.148 17.7165 104.58C17.642 104.577 17.5692 104.575 17.4974 104.573C18.5881 108.116 20.6062 115.141 22.1751 123.301C22.439 124.673 22.6965 126.114 22.9375 127.605C22.3333 127.118 20.5111 125.694 17.9681 124.125C15.8254 122.804 12.8304 121.175 9.49356 120.003C9.48597 120.011 9.47838 120.019 9.47078 120.027C9.42922 120.072 9.39145 120.118 9.35601 120.164C12.6997 121.331 15.7046 122.964 17.8508 124.288C20.7612 126.083 22.7222 127.686 22.9854 127.904C23.5127 131.211 23.9558 134.756 24.2036 138.344C20.2668 135.471 12.6307 133.074 8.81281 131.993C8.76968 132.05 8.73046 132.108 8.69531 132.165C12.5277 133.247 20.3378 135.691 24.2217 138.607C24.5605 143.713 24.498 148.894 23.7152 153.583C19.8156 152.142 16.5285 148.297 14.4495 145.306C13.1634 143.456 12.1702 141.699 11.5459 140.513C11.4812 140.535 11.4181 140.563 11.3568 140.596C11.9838 141.787 12.9814 143.552 14.2733 145.411C16.3771 148.438 19.7117 152.335 23.6823 153.782C23.3362 155.796 22.8555 157.717 22.2145 159.501C22.2446 159.52 22.2739 159.539 22.304 159.559C22.304 159.559 22.3485 159.54 22.4325 159.505C23.3076 157.053 23.9242 154.238 24.2791 151.083C24.6116 151.102 24.9445 151.112 25.278 151.112C27.221 151.112 29.176 150.787 31.1043 150.14C32.936 149.526 34.7479 148.623 36.4894 147.456C37.2088 146.974 37.8565 146.486 38.4262 146.023Z" fill="white"/>
<path d="M213.501 151.735C213.501 151.735 210.628 137.659 222.736 123.708L224.338 128.745L224.255 122.395C224.255 122.395 231.642 114.566 238.308 110.386C238.308 110.386 235.265 127.35 233.391 130.851L228.824 134.064L233.818 134.106C233.818 134.106 232.348 143.585 226.027 149.932C219.705 156.28 213.501 151.735 213.501 151.735Z" fill="#E03268"/>
<path d="M227.322 92.4983C221.884 92.553 224.647 100.294 225.477 102.348C223.957 103.612 222.668 104.899 221.583 106.149C221.627 103.458 223.408 101.532 222.911 99.8382C222.354 97.9392 220.509 96.3201 218.848 99.544C217.533 102.099 220.059 105.386 221.165 106.641C219.33 108.844 218.117 110.902 217.342 112.485C216.936 109.375 218.738 106.918 217.962 105.052C217.113 103.011 214.894 101.455 213.494 105.269C212.337 108.421 215.84 111.902 217.09 113.015C216.417 114.477 216.155 115.429 216.128 115.531C215.591 117.449 215.178 119.325 214.87 121.15C214.449 118.419 215.551 116.013 214.627 114.409C213.517 112.485 211.135 111.244 210.29 115.271C209.62 118.457 213.165 121.328 214.676 122.389C214.123 126.216 214.03 129.806 214.224 133.089C212.981 130.797 212.783 126.73 210.953 124.993C209.752 123.854 208.662 124.054 207.954 124.426C207.349 124.744 206.955 125.335 206.856 126.041C206.299 130.032 212.394 132.919 214.263 133.706C214.549 137.744 215.265 141.296 216.082 144.218C215.43 143.038 214.452 141.252 213.983 140.304C213.245 138.81 211.514 137.126 209.999 136.927C209.936 136.918 209.875 136.913 209.814 136.908C208.663 136.834 207.743 137.686 207.58 138.836C206.945 143.333 214.72 145.013 216.404 145.323C216.41 145.343 216.416 145.364 216.422 145.384C218.656 152.703 221.673 157.011 221.8 157.19L222.408 156.766C222.379 156.724 219.51 152.622 217.338 145.8C222.877 141.548 222.238 136.859 220.572 135.959C218.851 135.029 216.203 135.885 216.798 139.191C217.143 141.109 217.076 143.167 216.959 144.558C216.107 141.624 215.344 137.998 215.04 133.844C224.066 131.182 221.443 125.44 219.079 125.137C216.685 124.83 215.867 126.369 215.847 129.145C215.833 130.99 215.336 132.495 215.002 133.301C214.801 130.082 214.88 126.556 215.407 122.795C217.072 123.391 221.412 124.619 223.215 121.98C225.469 118.682 223.082 117.454 221.035 117.745C219.153 118.012 218.174 121.001 215.486 122.249C215.801 120.167 216.251 118.016 216.87 115.805C216.879 115.769 217.404 113.86 218.977 111.174C220.591 111.981 224.764 113.721 226.889 111.38C229.558 108.439 227.315 106.925 225.225 106.943C223.361 106.959 222.032 109.6 219.349 110.555C220.739 108.313 222.835 105.625 225.905 103.052C227.584 103.877 231.637 105.504 233.72 103.209C236.389 100.269 234.146 98.7542 232.056 98.7727C230.165 98.7892 228.826 101.506 226.067 102.425L226.013 102.358C226.616 101.463 227.901 99.5678 228.565 98.6978C229.451 97.5368 229.957 95.4467 229.299 94.0578C228.641 92.6687 227.322 92.4983 227.322 92.4983Z" fill="#FEB546"/>
<path d="M24.7193 158.363C24.7193 158.363 26.303 145.728 14.6607 134.323L13.5867 138.888L13.2297 133.279C13.2297 133.279 6.17293 126.922 0 123.733C0 123.733 3.83795 138.475 5.73136 141.424L9.98372 143.917L5.57502 144.328C5.57502 144.328 7.51565 152.582 13.5308 157.71C19.5458 162.838 24.7193 158.363 24.7193 158.363Z" fill="#FF5B7E"/>
<path d="M248.132 126.523C248.081 131.479 246.834 135.588 244.86 138.993C242.65 138.776 240.013 138.566 240.013 138.566L243.372 141.253C234.439 153.305 216.056 155.113 216.056 155.113C215.976 144.219 219.177 137.361 223.584 133.074C225.024 133.698 227.154 134.649 227.154 134.649L225.068 131.758C227.409 129.872 229.998 128.598 232.571 127.749C233.645 129.258 234.906 130.943 234.906 130.943L235.085 127.044C241.992 125.433 248.132 126.523 248.132 126.523Z" fill="#07085B"/>
<path d="M223.584 133.074C225.024 133.698 227.154 134.649 227.154 134.649L225.068 131.758C227.409 129.872 229.998 128.598 232.571 127.749C233.645 129.258 234.907 130.943 234.907 130.943L235.085 127.044C241.992 125.433 248.132 126.523 248.132 126.523C238.989 141.508 216.056 155.113 216.056 155.113C215.976 144.219 219.177 137.361 223.584 133.074Z" fill="#55769F"/>
<path d="M250.002 144.577C246.967 143.544 244.043 143.253 241.303 143.453C240.687 144.537 239.923 145.82 239.923 145.82L239.423 143.67C229.064 145.292 221.746 153.535 221.746 153.535C228.352 155.897 233.611 155.857 237.712 154.703C237.819 153.894 237.959 152.691 237.959 152.691L239.015 154.287C240.954 153.591 242.606 152.647 243.993 151.62C243.438 150.794 242.838 149.843 242.838 149.843L245.272 150.591C248.589 147.692 250.002 144.577 250.002 144.577Z" fill="#FF5B7E"/>
<path d="M237.712 154.703C237.819 153.894 237.959 152.691 237.959 152.691L239.015 154.287C240.954 153.591 242.606 152.647 243.993 151.62C243.437 150.794 242.838 149.843 242.838 149.843L245.272 150.591C248.589 147.692 250.002 144.577 250.002 144.577C237.786 145.673 221.746 153.535 221.746 153.535C228.352 155.897 233.61 155.857 237.712 154.703Z" fill="#E03268"/>
<path d="M3.49609 160.534C3.49609 160.534 4.84232 153.986 17.9684 153.356C31.0946 152.726 32.4409 157.282 51.9618 155.353C71.4827 153.425 81.334 145.759 112.072 146.902C142.81 148.044 138.178 154.141 168.947 154.744C199.715 155.347 204.415 150.302 220.744 152.038C237.074 153.774 243.488 160.905 243.488 160.905H238.42L3.49609 160.534Z" fill="#02CCC0"/>
<path d="M245.177 161.829H1.53946C1.1487 161.829 0.832031 161.515 0.832031 161.128C0.832031 160.741 1.1487 160.427 1.53946 160.427H245.177C245.567 160.427 245.884 160.741 245.884 161.128C245.884 161.515 245.567 161.829 245.177 161.829Z" fill="#07085B"/>
<path d="M44.0963 92.6885C45.3156 88.026 48.1016 84.7143 50.3189 85.2916C52.5362 85.8689 53.3454 90.1164 52.126 94.7789C51.9576 95.4229 52.4003 95.4512 52.5475 94.8886C53.8948 89.7367 53.0008 85.0431 50.5507 84.4053C48.1005 83.7675 45.0221 87.4269 43.6748 92.5789C43.5207 93.1681 43.9279 93.3324 44.0963 92.6885Z" fill="#02CCC0"/>
<path d="M57.1273 116.347L52.0875 120.007L37.8945 91.9868L40.0908 88.3748L59.3327 93.4717L57.1273 116.347Z" fill="#00B0A5"/>
<path d="M52.0883 120.007L29.918 114.236L37.8683 89.2963L57.3642 94.3716L52.0883 120.007Z" fill="#02CCC0"/>
<path d="M59.3324 93.4717L40.0905 88.3748L41.1838 89.3055L37.8672 89.2964L57.3631 94.3717L57.8904 93.725L59.3324 93.4717Z" fill="#008C83"/>
<path d="M42.6957 92.9188C44.0138 87.8785 47.0255 84.2984 49.4226 84.9224C51.8196 85.5464 52.6942 90.1382 51.3761 95.1785C51.194 95.8746 51.6726 95.9053 51.8317 95.2971C53.2881 89.7277 52.3217 84.6539 49.6731 83.9643C47.0244 83.2748 43.6966 87.2308 42.2401 92.8002C42.0735 93.4373 42.5136 93.615 42.6957 92.9188Z" fill="#02CCC0"/>
<path d="M57.8889 93.7251L53.1016 115.072L57.1255 116.348L59.331 93.4718L57.8889 93.7251Z" fill="#E6E6E6"/>
<path d="M43.2306 91.3492C45.4676 87.0805 48.9273 84.4805 50.958 85.5419C52.9885 86.6032 52.8212 90.9239 50.5841 95.1927C50.2752 95.7822 50.7002 95.9093 50.9701 95.3944C53.442 90.6776 53.627 85.9032 51.3833 84.7305C49.1395 83.5577 45.3166 86.4308 42.8447 91.1475C42.5619 91.6871 42.9216 91.9388 43.2306 91.3492Z" fill="#FF5B7E"/>
<path d="M50.6024 117.333L44.8684 119.765L37.3438 89.27L40.2964 86.2448L57.8982 95.5402L50.6024 117.333Z" fill="#E8486A"/>
<path d="M44.8697 119.765L24.5664 109.154L37.9241 86.6425L55.7781 95.974L44.8697 119.765Z" fill="#FF5B7E"/>
<path d="M57.8973 95.5402L40.2955 86.2448L41.1513 87.3975L37.9219 86.6425L55.7759 95.9741L56.4351 95.4626L57.8973 95.5402Z" fill="#C23C59"/>
<path d="M41.8131 91.2583C44.2315 86.6438 47.9715 83.8331 50.1666 84.9804C52.3618 86.1277 52.1809 90.7987 49.7626 95.4132C49.4286 96.0505 49.888 96.1879 50.1798 95.6312C52.852 90.5322 53.0519 85.3711 50.6264 84.1033C48.2008 82.8355 44.0682 85.9413 41.396 91.0402C41.0902 91.6235 41.4791 91.8956 41.8131 91.2583Z" fill="#FF5B7E"/>
<path d="M56.4322 95.4624L46.9648 115.185L50.5986 117.333L57.8944 95.54L56.4322 95.4624Z" fill="#E6E6E6"/>
<path d="M44.1919 87.6898C46.4512 85.3673 49.1788 84.3543 50.2842 85.4273C51.3895 86.5001 50.4541 89.2526 48.1949 91.5751C47.8829 91.8958 48.1324 92.0593 48.405 91.779C50.9014 89.2127 51.935 86.1714 50.7136 84.9858C49.4921 83.8003 46.4782 84.9196 43.9819 87.486C43.6963 87.7794 43.8799 88.0106 44.1919 87.6898Z" fill="#FEB546"/>
<path d="M43.9659 105.847L39.8047 106.316L40.796 85.2222L43.2783 83.8381L52.8415 93.1999L43.9659 105.847Z" fill="#EBA741"/>
<path d="M39.8062 106.317L28.7539 95.5892L41.6739 83.64L51.3929 93.0732L39.8062 106.317Z" fill="#FEB546"/>
<path d="M52.841 93.2L43.2777 83.8382L43.6085 84.745L41.6719 83.64L51.3908 93.0732L51.9137 92.8699L52.841 93.2Z" fill="#B88233"/>
<path d="M43.2947 87.3594C45.737 84.8488 48.6856 83.7537 49.8806 84.9136C51.0755 86.0734 50.0644 89.0489 47.622 91.5596C47.2847 91.9064 47.5544 92.083 47.8491 91.7801C50.5479 89.0059 51.6652 85.718 50.3448 84.4364C49.0245 83.1548 45.7663 84.3648 43.0677 87.139C42.7589 87.4563 42.9574 87.7062 43.2947 87.3594Z" fill="#FEB546"/>
<path d="M51.9137 92.87L42.0352 103.767L43.9655 105.847L52.8411 93.2001L51.9137 92.87Z" fill="#E6E6E6"/>
<path d="M51.0675 86.9762C50.9537 86.9854 50.8194 86.8814 50.728 86.9491C50.0187 87.4753 49.5427 87.6047 49.4205 87.4768C49.2748 87.3242 49.3507 87.1392 49.2819 87.0311C49.1455 86.8165 48.9818 87.0075 48.7569 86.8133C48.6289 86.7027 48.7003 86.5284 48.6528 86.405C48.6053 86.2813 48.5191 86.2098 48.3263 86.144C48.1336 86.0783 48.2003 85.8385 48.1853 85.6722C48.1703 85.5061 47.9712 85.5471 47.8898 85.4281C47.7385 85.207 47.8451 84.6715 49.4479 83.5657L50.872 82.6197L52.2944 82.5012L52.9203 84.1868C52.9203 84.1868 52.5574 84.6597 52.3014 85.5909C52.1075 86.2961 51.7892 86.9179 51.0675 86.9762Z" fill="#FFC0BB"/>
<path d="M71.025 109.071L55.9384 153.678C55.9384 153.678 50.759 158.161 50.9837 155.545C51.036 154.936 51.801 150.611 51.8661 149.812C52.4122 143.098 53.9047 129.928 55.1039 125.408C56.401 120.519 59.4789 112.396 59.4789 112.396L71.025 109.071Z" fill="#FFC0BB"/>
<path d="M60.5634 157.164L55.8536 153.251L51.0156 155.313L52.4159 156.641L57.7128 158.167C57.7128 158.167 59.8603 158.196 59.9622 158.147C60.0638 158.097 60.5634 157.164 60.5634 157.164Z" fill="#FFC0BB"/>
<path d="M60.5636 157.164L61.7524 158.19C62.3042 158.659 61.9035 159.557 61.1864 159.459L51.2788 158.105C50.9294 158.057 50.6847 157.735 50.7325 157.386L51.0157 155.313C57.3272 158.315 59.6934 157.987 60.5636 157.164Z" fill="#07085B"/>
<path d="M85.8649 89.4988C85.8649 89.4988 93.1297 112.568 92.1605 115.765C91.5402 117.811 79.962 149.993 79.7784 149.934C79.5945 149.874 74.967 148.52 74.967 148.52C74.967 148.52 83.5604 117.072 83.1403 115.058C82.7204 113.044 74.0078 94.4532 74.0078 94.4532L85.8649 89.4988Z" fill="#FFC0BB"/>
<path d="M83.9798 151.885L80.7768 146.378L75.3125 146.663L76.2057 148.461L80.8356 151.846C80.8356 151.846 82.924 152.642 83.041 152.63C83.158 152.618 83.9798 151.885 83.9798 151.885Z" fill="#FFC0BB"/>
<path d="M83.9818 151.885L84.7764 153.312C85.1484 153.967 84.4353 154.701 83.7697 154.35L74.5728 149.485C74.2484 149.313 74.1243 148.912 74.296 148.587L75.3144 146.663C80.408 151.852 82.8373 152.378 83.9818 151.885Z" fill="#07085B"/>
<path d="M83.143 115.058C83.143 115.058 79.1912 127.087 76.6016 142.47L84.9596 124.45L83.143 115.058Z" fill="#FFC0BB"/>
<path d="M79.1715 53.2372C79.1715 53.2372 83.9454 50.8509 82.8796 44.1002C82.5436 41.9707 80.5302 41.2347 80.8817 38.4019C81.233 35.5691 82.1446 32.0914 79.2203 28.8834C76.2959 25.6757 73.601 25.2966 69.943 25.2415C66.1281 25.1843 59.4829 27.7944 57.8812 32.4219C56.2793 37.0494 50.3681 33.0726 44.1291 37.4422C37.89 41.812 39.7651 48.7669 41.3854 52.3528C46.3759 63.398 55.5062 65.1874 66.5488 62.4563C77.5911 59.7251 68.5255 57.7712 68.6267 57.5988C68.7281 57.4264 79.1715 53.2372 79.1715 53.2372Z" fill="#F46C0F"/>
<path d="M72.1875 45.5338L72.5157 41.6227L68.0995 41.9591L66.8603 46.8015C66.7101 47.3755 68.5388 47.6588 69.0775 47.9085C69.7038 48.1988 70.2877 46.6106 71.2599 46.4848C71.7522 46.4207 72.1339 46.0273 72.1875 45.5338Z" fill="#FFC0BB"/>
<g opacity="0.6">
<path d="M72.2863 44.3385L72.5142 41.6228L68.098 41.9592L67.7109 43.4717C68.629 43.9631 70.4755 44.6177 72.2863 44.3385Z" fill="#FC8D84"/>
</g>
<path d="M77.1335 39.881C77.2551 39.5216 77.3441 39.1487 77.3985 38.7651C77.564 37.7328 77.5402 36.6764 77.4483 35.7688C77.4286 35.5742 77.4201 35.379 77.4153 35.1833C77.3961 34.3937 77.231 33.5852 76.8846 32.7891C75.77 30.2275 73.0503 28.6735 70.2736 29.018C66.5333 29.482 64.069 32.9949 64.7893 36.5854C64.3549 36.4467 63.9054 36.4842 63.5535 36.7342C62.878 37.2133 62.8168 38.2849 63.4166 39.1281C64.0166 39.9706 65.0505 40.2657 65.7262 39.7867C65.8199 39.7201 65.9005 39.6412 65.9706 39.5538C66.8956 42.5468 69.8767 44.4038 72.8747 43.7534C74.3411 43.4345 75.5533 42.5712 76.3628 41.4103C76.4186 41.3413 76.4759 41.261 76.5346 41.17C76.7917 40.7707 76.9863 40.3345 77.1335 39.881Z" fill="#FFC0BB"/>
<path d="M71.206 36.5158C71.2714 36.816 71.0809 37.1117 70.7804 37.1768C70.48 37.2425 70.1836 37.0522 70.1183 36.7522C70.0529 36.4523 70.2435 36.1564 70.5438 36.0911C70.8442 36.026 71.1407 36.2164 71.206 36.5158Z" fill="#333333"/>
<path d="M75.9444 35.8076C76.0095 36.1075 75.8192 36.4036 75.5187 36.4686C75.2185 36.5337 74.9221 36.3434 74.8565 36.0441C74.7914 35.7439 74.9819 35.4481 75.2822 35.383C75.5825 35.3176 75.8792 35.508 75.9444 35.8076Z" fill="#333333"/>
<path d="M71.6304 35.297C71.3405 35.2453 71.0669 35.2128 70.7986 35.2083C70.531 35.2035 70.2719 35.2327 70.0253 35.3001C69.7804 35.3698 69.5372 35.4615 69.3142 35.6082L69.2266 35.6581C69.1974 35.6749 69.1725 35.6977 69.1439 35.716L68.9746 35.8351C68.8614 35.9168 68.7597 36.0134 68.6328 36.0968C68.6865 35.9612 68.7508 35.8262 68.8297 35.7003C68.9215 35.5852 69.0019 35.4527 69.1209 35.3572C69.3363 35.141 69.6234 34.9933 69.9223 34.9109C70.2232 34.8293 70.5431 34.827 70.8384 34.8952C71.1328 34.9668 71.4129 35.0938 71.6304 35.297Z" fill="#F46C0F"/>
<path d="M73.8398 34.933C73.9808 34.6711 74.2052 34.461 74.461 34.2993C74.719 34.1395 75.0223 34.0396 75.3337 34.0204C75.6436 34.003 75.9629 34.0508 76.2363 34.1867C76.3799 34.2389 76.4984 34.3388 76.6222 34.4184C76.7379 34.5127 76.842 34.62 76.9362 34.7308C76.7895 34.6927 76.6621 34.6334 76.5285 34.5921L76.33 34.5343C76.297 34.5258 76.2661 34.5124 76.2329 34.5054L76.1341 34.4866C75.8758 34.4189 75.616 34.4099 75.3614 34.422C75.106 34.4374 74.8513 34.4927 74.5994 34.5829C74.3466 34.6727 74.0981 34.7915 73.8398 34.933Z" fill="#F46C0F"/>
<path d="M72.9737 35.0226C72.9361 35.4219 72.964 35.8223 73.0392 36.2192C73.0773 36.418 73.1307 36.614 73.2078 36.81C73.2884 37.0034 73.3865 37.1992 73.5639 37.368L73.6384 37.4267L73.7044 37.476C73.7326 37.5002 73.7707 37.517 73.7927 37.5449C73.8473 37.593 73.8875 37.6499 73.9129 37.7125C73.9725 37.8372 73.9461 37.9947 73.8822 38.1452C73.7397 38.4527 73.4133 38.683 73.0549 38.8526C73.4489 38.8336 73.8834 38.6768 74.1408 38.2921C74.2667 38.1056 74.3351 37.8426 74.2537 37.594C74.2337 37.5325 74.2086 37.473 74.1718 37.4211C74.1404 37.3644 74.097 37.3197 74.0542 37.2745C74.0127 37.2262 73.9602 37.1978 73.9125 37.16C73.883 37.1394 73.877 37.1318 73.862 37.1195L73.8205 37.0867C73.7101 36.9855 73.6184 36.8274 73.5374 36.6654C73.452 36.5029 73.3941 36.3208 73.3255 36.1423C73.2013 35.7794 73.0928 35.404 72.9737 35.0226Z" fill="#F99893"/>
<path d="M73.709 29.5606C73.709 29.5606 70.7684 35.6775 64.7885 36.5854L63.7852 32.2985C63.7852 32.2985 65.7653 30.0116 66.0236 29.7181C66.2815 29.4247 70.2933 28.0414 70.2933 28.0414L73.636 28.5218L73.709 29.5606Z" fill="#F46C0F"/>
<path d="M64.1136 50.448C64.1136 50.448 57.2382 74.4367 50.2422 83.0767L52.5585 84.6598C52.5585 84.6598 66.0067 67.3087 68.0643 59.6554C70.1221 52.0026 64.1136 50.448 64.1136 50.448Z" fill="#FFC0BB"/>
<path d="M66.0892 45.1497C66.0892 45.1497 84.362 44.7611 81.0283 60.1906C81.0283 60.1906 79.5466 65.4982 79.7937 67.2267C80.0405 68.9543 82.3863 73.62 82.1394 78.0144C81.8925 82.4089 95.7206 89.321 96.8319 93.6414C96.8319 93.6414 92.0167 96.4804 90.0413 98.949C88.0657 101.418 83.4976 111.91 69.1756 112.28C54.8537 112.65 49.0508 113.391 49.0508 113.391C49.0508 113.391 49.6681 108.206 56.2117 100.554C62.7554 92.9008 61.2738 71.6696 67.0767 66.4855C67.0769 66.4856 59.7925 46.2791 66.0892 45.1497Z" fill="#07085B"/>
<path opacity="0.3" d="M56.2117 100.554C62.7554 92.901 61.2738 71.6698 67.0767 66.4856C67.0767 66.4856 60.6767 48.7323 65.0602 45.577C65.0613 45.5804 71.028 62.5359 73.744 65.0046C73.744 65.0046 68.7324 75.1259 68.4601 80.0634C68.1879 85.0007 72.1389 91.7318 70.0398 95.7106C67.941 99.6897 66.0996 113.805 82.2682 108.043C79.1906 110.314 74.9857 112.13 69.1756 112.28C54.8539 112.65 49.0508 113.391 49.0508 113.391C49.0508 113.391 49.6681 108.207 56.2117 100.554Z" fill="#02CCC0"/>
<path d="M66.3802 67.1238C66.1155 67.0727 65.9442 66.8138 65.9982 66.5499C66.0516 66.2879 66.3066 66.1199 66.5691 66.1705C73.2541 67.4589 78.1477 66.8318 79.6096 66.5833C79.8642 66.5398 80.1084 66.7021 80.1661 66.9532L80.1669 66.956C80.2292 67.2278 80.0524 67.4954 79.7781 67.5437C78.955 67.6881 77.1636 67.9382 74.6237 67.9382C72.4 67.9382 69.6024 67.7465 66.3802 67.1238ZM80.0616 66.4983C80.0616 66.4983 80.0616 66.4983 80.0619 66.4977L80.1702 66.9717L80.0616 66.4983Z" fill="#FF5B7E"/>
<path d="M70.5977 39.9009C70.7738 40.7369 71.5731 41.3671 72.5307 41.3642C73.4883 41.3608 74.2825 40.7256 74.4516 39.8885L70.5977 39.9009Z" fill="white"/>
<path d="M90.383 33.3407C90.4743 33.4086 90.6058 33.3489 90.6124 33.2352C90.6646 32.3536 90.8465 29.5802 91.0738 29.5427C91.3443 29.4976 91.2422 31.9797 91.4782 32.0746C91.7145 32.1695 91.7529 29.7458 92.0496 29.7444C92.3465 29.7431 92.2371 31.9514 92.3624 31.9946C92.4879 32.0378 92.8187 29.9331 92.9927 29.8271C93.167 29.7219 93.0874 32.0118 93.2245 32.1072C93.3616 32.2025 93.9424 30.6405 94.0821 30.6748C94.222 30.7086 94.3209 30.7084 94.0214 34.5994L93.8382 36.1266L93.0155 37.2925L91.3462 36.8952C91.3462 36.8952 88.641 32.6635 88.7246 32.474C88.8041 32.2934 88.9746 32.292 90.383 33.3407Z" fill="#FFC0BB"/>
<path d="M91.1291 36.5574C91.1291 36.5574 86.8993 51.4149 85.9536 51.8503C85.0078 52.2857 76.4884 50.1235 72.9925 48.4589C69.4963 46.794 65.4693 45.5703 64.4279 47.3884C63.3863 49.2063 67.8605 57.4869 83.976 57.9454C83.976 57.9454 90.2288 59.0779 91.9987 51.1007C93.7686 43.123 93.8568 35.9548 93.8568 35.9548L91.1291 36.5574Z" fill="#FFC0BB"/>
<path d="M134.469 83.3512C134.554 83.2877 134.534 83.1551 134.434 83.1184C132.898 82.5596 132.811 82.4265 132.912 82.2721C133.016 82.1101 137.398 81.4677 137.398 81.4677L147.25 70.1675C148.455 68.0594 155.091 56.5384 156.636 55.7948C157.062 55.5895 158.233 54.842 159.185 54.8077L158.749 64.874C156.777 67.7019 153.514 72.0541 150.858 74.4435C147.973 77.3889 142.542 81.2702 140.213 82.6938L137.275 85.3044C134.401 87.5292 135.073 86.0177 134.929 85.9603C134.784 85.9023 134.497 85.4228 134.4 85.3474C134.302 85.2715 134.204 84.7535 134.009 84.6186C133.815 84.4837 133.81 83.8429 134.469 83.3512Z" fill="#FFC0BB"/>
<path d="M162.827 41.1C162.827 41.1 162.664 44.8673 161.166 47.1934C159.875 49.1952 158.106 52.7459 161.426 54.9528C164.744 57.1597 169.527 54.1628 169.596 53.9421C169.664 53.7217 171.265 51.2376 171.136 49.2508C171.007 47.2638 171.895 44.8876 170.257 43.2063C168.618 41.5249 162.827 41.1 162.827 41.1Z" fill="#07085B"/>
<path d="M180.266 48.6424C178.953 45.8868 178.813 43.6565 178.909 41.6073C178.949 40.748 179.28 38.2932 177.6 35.973C175.168 32.6155 172.136 31.503 168.773 32.111C164.88 32.815 162.564 37.5147 162.797 40.4144L169.931 40.5537C168.784 40.7822 167.967 40.9454 167.967 40.9454C163.265 53.1251 166.234 53.5772 167.028 55.143C167.821 56.7092 172.72 58.3176 176.564 57.6443C182.75 56.5602 181.92 52.1119 180.266 48.6424Z" fill="#07085B"/>
<path d="M172.894 47.1528L173.114 52.9757C173.114 52.9757 170.917 54.7712 167.098 52.3562C167.098 52.3562 167.856 51.5102 167.802 49.3021C167.746 47.0464 172.894 47.1528 172.894 47.1528Z" fill="#FFC0BB"/>
<path opacity="0.6" d="M172.891 47.1528L172.986 49.5812C172.082 51.0754 170.345 51.7699 167.57 51.3416C167.71 50.8604 167.821 50.1939 167.799 49.3021C167.743 47.0464 172.891 47.1528 172.891 47.1528Z" fill="#FC8D84"/>
<path d="M164.757 41.1908C164.866 42.0015 164.428 42.7293 163.779 42.8164C163.13 42.9029 162.516 42.316 162.407 41.5053C162.299 40.6946 162.737 39.9664 163.386 39.8796C164.034 39.7929 164.648 40.38 164.757 41.1908Z" fill="#F99893"/>
<path d="M163.658 44.4126C163.551 43.3784 163.634 42.3306 163.776 41.4348C163.806 41.243 163.825 41.0495 163.841 40.8558C163.904 40.0723 164.113 39.279 164.501 38.5081C165.749 36.0268 168.532 34.636 171.265 35.1328C174.947 35.8022 177.193 39.4276 176.278 42.9524C176.717 42.8389 177.16 42.9013 177.495 43.1692C178.138 43.6825 178.138 44.7496 177.497 45.5532C176.855 46.3563 175.814 46.5914 175.17 46.0781C175.081 46.0068 175.006 45.924 174.941 45.8335C173.857 48.7534 170.798 50.431 167.863 49.6169C165.641 49.001 163.88 47.0241 163.658 44.4126Z" fill="#FFC0BB"/>
<path d="M166.789 41.2912C166.854 41.5913 166.663 41.8872 166.363 41.9522C166.024 42.0263 165.69 41.7746 165.688 41.4074C165.686 41.1928 165.816 40.991 166.012 40.9039C166.348 40.7549 166.715 40.9539 166.789 41.2912Z" fill="#333333"/>
<path d="M171.566 42.2767C171.631 42.5769 171.441 42.8725 171.14 42.9378C170.801 43.0118 170.468 42.7602 170.465 42.393C170.463 42.1783 170.594 41.9765 170.79 41.8895C171.125 41.7405 171.492 41.9395 171.566 42.2767Z" fill="#333333"/>
<path d="M168.792 40.9462C168.694 41.291 168.594 41.6311 168.476 41.9604C168.412 42.1227 168.354 42.2873 168.272 42.4364C168.193 42.5852 168.105 42.7315 167.99 42.827L167.947 42.8591C167.932 42.8708 167.922 42.8798 167.898 42.8955C167.856 42.9263 167.811 42.9488 167.774 42.9887C167.736 43.0252 167.697 43.0606 167.669 43.1072C167.636 43.1493 167.614 43.1982 167.594 43.2487C167.516 43.4536 167.563 43.6787 167.662 43.8464C167.76 44.0183 167.909 44.1469 168.07 44.2387C168.233 44.3288 168.408 44.3856 168.586 44.4109C168.423 44.3353 168.268 44.2519 168.135 44.143C168.001 44.0372 167.891 43.9059 167.825 43.7617C167.764 43.6176 167.74 43.4584 167.802 43.3303C167.818 43.2989 167.831 43.2666 167.855 43.2393C167.873 43.2089 167.901 43.1854 167.928 43.1601C167.952 43.1331 167.989 43.1179 168.018 43.0954C168.05 43.0735 168.102 43.0376 168.142 43.0072C168.297 42.8691 168.392 42.7011 168.473 42.5335C168.55 42.3639 168.605 42.1904 168.651 42.0146C168.74 41.6628 168.79 41.3056 168.792 40.9462Z" fill="#F99893"/>
<path d="M170.367 40.6547C170.661 40.6598 170.934 40.6794 171.196 40.7227C171.457 40.7659 171.702 40.8389 171.93 40.9459C172.155 41.0551 172.376 41.1834 172.57 41.362C172.679 41.4393 172.761 41.546 172.866 41.6373C172.966 41.735 173.051 41.8457 173.164 41.947C173.138 41.8035 173.1 41.6593 173.046 41.5204C172.979 41.3893 172.921 41.2464 172.822 41.1307C172.649 40.8793 172.392 40.6833 172.111 40.5508C171.829 40.4187 171.513 40.3626 171.211 40.3822C170.91 40.4042 170.613 40.4862 170.367 40.6547Z" fill="#07085B"/>
<path d="M167.971 40.156C167.82 39.899 167.587 39.6988 167.323 39.5506C167.058 39.4046 166.749 39.3214 166.437 39.3206C166.126 39.3214 165.81 39.3894 165.546 39.5433C165.408 39.6062 165.294 39.7107 165.179 39.8014C165.071 39.9039 164.975 40.0184 164.891 40.1372C165.036 40.0937 165.16 40.0294 165.291 39.9831C165.425 39.9454 165.545 39.884 165.676 39.8601C165.928 39.7809 166.182 39.7584 166.433 39.755C166.684 39.7556 166.938 39.7938 167.193 39.8651C167.448 39.9375 167.702 40.0358 167.971 40.156Z" fill="#07085B"/>
<path d="M175.493 42.9394C175.827 42.8748 175.865 42.9046 176.276 42.9523L176.611 42.9006L176.532 42.4797L176.403 42.4199L176.679 41.2776L176.519 40.0847C176.519 40.0847 175.478 36.6767 175.432 36.5855C175.386 36.4942 174.191 35.114 174.115 35.0379C174.038 34.9624 171.844 34.622 171.844 34.622C171.844 34.622 168.44 32.6316 168.388 34.8812C168.335 37.1308 170.661 39.0737 170.828 39.0277C170.543 38.4274 170.926 37.1083 170.926 37.1083C172.097 39.9086 175.015 42.5229 175.493 42.9394Z" fill="#07085B"/>
<path d="M170.24 45.6448C170.003 46.3822 169.222 46.875 168.36 46.7827C167.496 46.6897 166.839 46.0419 166.766 45.2714L170.24 45.6448Z" fill="white"/>
<path d="M159.28 51.7788C159.28 51.7788 153.93 56.9688 152.777 59.4372C152.777 59.4372 155.403 67.613 156.597 68.6827L160.036 65.8596L159.28 51.7788Z" fill="#FEB546"/>
<path d="M201.271 85.486C201.191 85.4164 201.221 85.2857 201.323 85.2566C202.896 84.8124 202.993 84.6861 202.904 84.5247C202.811 84.3554 198.489 83.3921 198.489 83.3921L189.496 71.3968C188.45 69.2057 182.68 57.2272 181.194 56.3719C180.784 56.1357 179.671 55.304 178.725 55.1997L178.418 65.2706C180.176 68.2361 183.11 72.8169 185.582 75.3954C188.243 78.5453 193.373 82.8162 195.591 84.4074L198.329 87.2274C200.022 88.9785 200.473 88.101 200.621 88.0543C200.769 88.0071 201.09 87.55 201.193 87.4821C201.296 87.4135 201.432 86.9042 201.636 86.7839C201.841 86.6636 201.892 86.025 201.271 85.486Z" fill="#FFC0BB"/>
<path d="M180.762 54.8907L185.617 61.4121C185.617 61.4121 181.173 68.4889 180.185 69.8882L179.033 68.0982C179.033 68.0982 175.658 62.9756 175.987 62.3997C176.317 61.8235 180.762 54.8907 180.762 54.8907Z" fill="#FEB546"/>
<path d="M164.535 100.684C164.535 100.684 170.869 124.026 173.411 126.195C175.037 127.582 202.154 148.433 202.276 148.284C202.399 148.135 205.564 144.498 205.564 144.498C205.564 144.498 181.357 122.656 180.624 120.734C179.891 118.812 177.192 98.4591 177.192 98.4591L164.535 100.684Z" fill="#FFC0BB"/>
<path d="M161.625 51.4344C161.625 51.4344 175.515 52.36 178.416 53.2244C178.416 53.2244 178.478 55.9736 177.83 56.5276C177.182 57.0817 170.671 59.5057 168.633 59.6671C166.595 59.828 165.113 61.3093 163.57 59.0563C162.026 56.8036 161.625 56.2484 161.625 55.6621C161.625 55.0758 161.625 51.4344 161.625 51.4344Z" fill="#FFC0BB"/>
<path d="M199.791 152.193L199.516 145.829L204.27 143.121L204.489 145.117L202.417 150.464C202.417 150.464 201.089 152.261 200.983 152.314C200.878 152.367 199.791 152.193 199.791 152.193Z" fill="#FFC0BB"/>
<path d="M157.926 107.885L165.599 154.345C165.599 154.345 169.985 159.605 170.186 156.987C170.233 156.378 170.178 151.986 170.243 151.187C170.79 144.474 171.447 131.235 170.995 126.581C170.505 121.547 168.782 113.033 168.782 113.033L157.926 107.885Z" fill="#FFC0BB"/>
<path d="M199.789 152.193L199.89 153.824C199.93 154.575 200.927 154.809 201.297 154.154L206.416 145.097C206.596 144.778 206.483 144.373 206.164 144.192L204.268 143.121C202.78 150.237 201.018 151.991 199.789 152.193Z" fill="#07085B"/>
<path d="M159.28 51.7788C159.28 51.7788 156.07 65.3617 159.28 75.895C159.28 75.895 155.453 81.491 155.453 88.0332C155.453 94.5754 159.28 119.879 159.28 119.879C159.28 119.879 170.269 119.262 175.948 117.164V100.994L178.541 115.683L181.134 114.572C181.134 114.572 184.714 90.5444 175.454 77.3155C175.454 77.3155 178.788 68.9623 179.035 68.0983C179.035 68.0983 178.541 59.5809 180.764 54.8908C180.764 54.8908 178.233 53.2244 178.417 53.2244C178.602 53.2244 176.195 57.0507 170.578 56.8654C164.96 56.6803 161.626 51.4344 161.626 51.4344L159.28 51.7788Z" fill="#FEB546"/>
<path d="M160.469 157.037L165.75 153.937L170.19 156.754L168.594 157.838L163.12 158.488C163.12 158.488 160.996 158.169 160.903 158.104C160.811 158.038 160.469 157.037 160.469 157.037Z" fill="#FFC0BB"/>
<path d="M160.469 157.037L159.13 157.857C158.509 158.23 158.759 159.181 159.483 159.2L169.479 159.466C169.831 159.476 170.125 159.197 170.135 158.845L170.19 156.754C163.476 158.696 161.194 157.99 160.469 157.037Z" fill="#07085B"/>
<path opacity="0.3" d="M168.046 75.3191C157.675 71.7395 161.626 51.4344 161.626 51.4344L159.28 51.7788C159.28 51.7788 156.07 65.3617 159.28 75.895C159.28 75.895 155.453 81.491 155.453 88.0332C155.453 94.5754 159.28 119.879 159.28 119.879C159.28 119.879 170.269 119.262 175.948 117.164C161.256 117.781 168.046 75.3191 168.046 75.3191Z" fill="#FEB546"/>
<path d="M180.621 120.734C180.621 120.734 190.44 128.729 200.922 140.285L184.16 129.622L180.621 120.734Z" fill="#FFC0BB"/>
<path d="M129.756 91.6802C130.97 87.0162 133.752 83.701 135.97 84.2754C138.188 84.8499 139.002 89.0966 137.789 93.7606C137.621 94.4048 138.064 94.4325 138.21 93.8699C139.551 88.7163 138.651 84.0237 136.2 83.389C133.749 82.7543 130.676 86.4175 129.335 91.5711C129.181 92.1605 129.589 92.3245 129.756 91.6802Z" fill="#F46C0F"/>
<path d="M142.81 115.323L137.775 118.989L123.547 90.9862L125.739 87.3716L144.987 92.4444L142.81 115.323Z" fill="#D65F0D"/>
<path d="M137.775 118.989L115.598 113.245L123.517 88.2959L143.019 93.3469L137.775 118.989Z" fill="#F46C0F"/>
<path d="M144.986 92.4444L125.738 87.3716L126.832 88.3009L123.516 88.2959L143.018 93.3469L143.544 92.6996L144.986 92.4444Z" fill="#C7580D"/>
<path d="M128.352 91.9124C129.664 86.8703 132.671 83.2866 135.069 83.9075C137.466 84.5286 138.347 89.1194 137.035 94.1613C136.854 94.8576 137.332 94.8877 137.491 94.2794C138.94 88.7082 137.967 83.6355 135.318 82.9492C132.669 82.2629 129.346 86.2231 127.896 91.7943C127.73 92.4315 128.17 92.6087 128.352 91.9124Z" fill="#F46C0F"/>
<path d="M143.546 92.6996L138.785 114.052L142.811 115.323L144.988 92.4443L143.546 92.6996Z" fill="#E6E6E6"/>
<path d="M128.879 90.3419C131.111 86.0704 134.567 83.4661 136.599 84.525C138.631 85.5837 138.469 89.9047 136.237 94.1761C135.929 94.7662 136.354 94.8927 136.623 94.3773C139.089 89.6576 139.268 84.883 137.023 83.713C134.778 82.543 130.959 85.4208 128.493 90.1406C128.211 90.6805 128.571 90.9318 128.879 90.3419Z" fill="#FF5B7E"/>
<path d="M136.286 116.317L130.555 118.756L122.992 88.2699L125.941 85.2411L143.555 94.5146L136.286 116.317Z" fill="#E8486A"/>
<path d="M130.555 118.756L110.238 108.17L123.568 85.6417L141.434 94.9511L130.555 118.756Z" fill="#FF5B7E"/>
<path d="M143.553 94.5146L125.94 85.2411L126.797 86.3928L123.566 85.6418L141.432 94.9512L142.091 94.4388L143.553 94.5146Z" fill="#C23C59"/>
<path d="M127.461 90.2527C129.874 85.6351 133.61 82.8198 135.807 83.9643C138.004 85.1088 137.829 89.78 135.416 94.3976C135.083 95.0353 135.542 95.1723 135.833 94.6151C138.499 89.5129 138.693 84.3514 136.266 83.0866C133.838 81.8219 129.71 84.9328 127.044 90.035C126.739 90.6187 127.128 90.8904 127.461 90.2527Z" fill="#FF5B7E"/>
<path d="M142.091 94.4386L132.648 114.172L136.285 116.316L143.554 94.5144L142.091 94.4386Z" fill="#E6E6E6"/>
<path d="M129.836 86.6814C132.093 84.356 134.819 83.3397 135.926 84.4112C137.033 85.4827 136.101 88.2364 133.844 90.5617C133.533 90.8829 133.782 91.046 134.055 90.7654C136.548 88.196 137.577 85.1533 136.355 83.9693C135.132 82.7852 132.119 83.9083 129.626 86.4777C129.341 86.7716 129.525 87.0025 129.836 86.6814Z" fill="#FEB546"/>
<path d="M129.633 104.839L125.473 105.313L126.438 84.218L128.918 82.8308L138.493 92.1807L129.633 104.839Z" fill="#EBA741"/>
<path d="M125.472 105.313L114.406 94.5998L127.311 82.6345L137.042 92.0558L125.472 105.313Z" fill="#FEB546"/>
<path d="M138.494 92.1807L128.919 82.8308L129.251 83.7373L127.312 82.6345L137.043 92.0558L137.566 91.8517L138.494 92.1807Z" fill="#B88233"/>
<path d="M128.939 86.352C131.378 83.8383 134.326 82.7396 135.522 83.8979C136.718 85.0562 135.711 88.0331 133.272 90.5467C132.935 90.8939 133.205 91.0703 133.499 90.7669C136.194 87.9894 137.308 84.7001 135.986 83.4201C134.664 82.1403 131.407 83.3543 128.712 86.1318C128.403 86.4496 128.602 86.6992 128.939 86.352Z" fill="#FEB546"/>
<path d="M137.568 91.8519L127.703 102.761L129.636 104.839L138.496 92.1809L137.568 91.8519Z" fill="#E6E6E6"/>
<path d="M206.586 93.8391C205.239 88.6872 202.16 85.0277 199.71 85.6656C197.26 86.3034 196.366 90.997 197.713 96.1488C197.861 96.7114 198.303 96.683 198.135 96.0391C196.915 91.3766 197.725 87.129 199.942 86.5517C202.159 85.9745 204.945 89.2862 206.165 93.9487C206.333 94.5927 206.74 94.4285 206.586 93.8391Z" fill="#02CCC0"/>
<path d="M193.139 117.608L198.179 121.268L212.372 93.2472L210.175 89.6353L190.934 94.732L193.139 117.608Z" fill="#00B0A5"/>
<path d="M198.178 121.268L220.349 115.496L212.398 90.5568L192.902 95.6321L198.178 121.268Z" fill="#02CCC0"/>
<path d="M190.934 94.732L210.175 89.6353L209.082 90.5658L212.399 90.5567L192.903 95.6321L192.376 94.9854L190.934 94.732Z" fill="#008C83"/>
<path d="M208.024 94.0606C206.567 88.4911 203.239 84.5352 200.591 85.2246C197.942 85.9142 196.976 90.9881 198.432 96.5575C198.591 97.1656 199.07 97.1351 198.888 96.4388C197.57 91.3986 198.444 86.8067 200.841 86.1827C203.238 85.5587 206.25 89.1388 207.568 94.1792C207.75 94.8754 208.19 94.6977 208.024 94.0606Z" fill="#02CCC0"/>
<path d="M192.376 94.9855L197.163 116.332L193.139 117.608L190.934 94.7321L192.376 94.9855Z" fill="#E6E6E6"/>
<path d="M207.412 92.4075C204.94 87.6909 201.118 84.8179 198.874 85.9906C196.63 87.1634 196.815 91.9377 199.287 96.6544C199.557 97.1695 199.982 97.0421 199.673 96.4527C197.436 92.1841 197.268 87.8634 199.299 86.802C201.329 85.7406 204.789 88.3407 207.026 92.6092C207.335 93.1988 207.695 92.9471 207.412 92.4075Z" fill="#07085B"/>
<path d="M199.663 118.593L205.397 121.025L212.922 90.5298L209.969 87.5046L192.367 96.8001L199.663 118.593Z" fill="#06074A"/>
<path d="M205.397 121.025L225.7 110.414L212.342 87.9025L194.488 97.234L205.397 121.025Z" fill="#07085B"/>
<path d="M192.367 96.8001L209.969 87.5046L209.113 88.6574L212.343 87.9024L194.488 97.234L193.829 96.7225L192.367 96.8001Z" fill="#040536"/>
<path d="M208.872 92.3001C206.2 87.2012 202.067 84.0955 199.641 85.3631C197.216 86.6309 197.416 91.7922 200.088 96.8911C200.38 97.4479 200.839 97.3104 200.505 96.673C198.087 92.0585 197.906 87.3876 200.101 86.2402C202.296 85.093 206.036 87.9037 208.455 92.5182C208.789 93.1556 209.178 92.8835 208.872 92.3001Z" fill="#07085B"/>
<path d="M193.829 96.7227L203.297 116.445L199.663 118.593L192.367 96.8002L193.829 96.7227Z" fill="#E6E6E6"/>
<path d="M206.284 88.7462C203.788 86.1799 200.774 85.0606 199.552 86.246C198.331 87.4316 199.364 90.473 201.861 93.0392C202.133 93.3195 202.383 93.156 202.071 92.8353C199.812 90.5128 198.876 87.7603 199.982 86.6875C201.087 85.6146 203.815 86.6276 206.074 88.95C206.386 89.2708 206.569 89.0397 206.284 88.7462Z" fill="#FF5B7E"/>
<path d="M206.294 107.108L210.455 107.577L209.464 86.4827L206.981 85.0986L197.418 94.4603L206.294 107.108Z" fill="#E8486A"/>
<path d="M210.454 107.577L221.506 96.8496L208.586 84.9004L198.867 94.3336L210.454 107.577Z" fill="#FF5B7E"/>
<path d="M197.418 94.4603L206.981 85.0987L206.651 86.0055L208.587 84.9004L198.868 94.3336L198.346 94.1303L197.418 94.4603Z" fill="#C23C59"/>
<path d="M207.191 88.3995C204.493 85.6253 201.235 84.4151 199.914 85.6967C198.594 86.9783 199.711 90.2662 202.41 93.0404C202.704 93.3433 202.974 93.1667 202.637 92.82C200.195 90.3092 199.183 87.3337 200.378 86.1739C201.573 85.0141 204.522 86.1092 206.964 88.6199C207.302 88.9666 207.5 88.7168 207.191 88.3995Z" fill="#FF5B7E"/>
<path d="M198.349 94.1304L208.228 105.027L206.298 107.108L197.422 94.4604L198.349 94.1304Z" fill="#E6E6E6"/>
<path d="M133.382 83.9951C133.893 83.6559 135.807 83.5159 136.07 83.9076C136.39 84.3826 136.178 86.3669 135.544 86.6207C134.974 86.8001 132.693 84.4525 133.382 83.9951Z" fill="#FFC0BB"/>
<path d="M201.975 85.998C201.472 85.6479 199.561 85.4671 199.29 85.853C198.96 86.321 199.13 88.3094 199.758 88.5767C200.324 88.7684 202.654 86.4701 201.975 85.998Z" fill="#FFC0BB"/>
</svg>
