<svg width="250" height="251" viewBox="0 0 250 251" fill="none" xmlns="http://www.w3.org/2000/svg">
<path d="M164.585 112.857C164.383 103.033 164.71 93.208 164.565 83.3843C164.256 61.9918 163.952 40.5976 163.652 19.2018C163.597 15.1943 163.19 10.518 159.827 8.34176C157.788 7.02176 155.193 7.02801 152.765 7.09176C137.227 7.49926 121.73 6.82426 106.21 7.69551C100.21 8.03176 95.4718 9.91801 95.2518 16.5593C94.8068 29.978 95.5143 116.864 95.8768 124.146C96.0018 126.761 95.1568 137.521 97.5256 140.058C98.9793 141.614 114.809 140.628 115.785 140.288C117.47 139.702 122.315 129.049 127.153 124.238C122.744 124.472 105.829 125.738 104.903 123.578C103.977 121.418 103.768 28.6268 103.278 21.9318C120.682 22.2368 138.087 22.0893 155.493 21.4893C156.272 55.3143 154.918 82.9655 155.545 104.791C155.67 109.262 157.012 117.462 154.414 121.372C152.994 123.509 150.164 123.372 147.624 123.351C145.609 123.338 136.714 124.031 136.285 123.931C137.535 124.222 137.934 125.788 137.91 127.064C137.848 131.286 135.853 135.198 134.13 139.052C133.148 141.251 134.658 141.097 136.373 141.087C138.088 141.077 150.775 140.866 155.382 140.387C159.188 139.992 162.16 140.542 163.492 136.602C165.848 129.636 164.735 120.156 164.585 112.857Z" fill="url(#paint0_linear_1021_694)"/>
<path d="M129.509 72.4255C128.9 72.0597 128.175 71.9376 127.479 72.0836C126.784 72.2296 126.169 72.633 125.759 73.213C123.098 76.4417 124.024 81.6892 124.608 85.4155C124.684 85.9005 125.465 85.778 125.455 85.3005C125.286 82.6679 125.428 80.0245 125.88 77.4255C126.109 76.4005 126.38 74.748 127.273 74.068C130.741 71.4317 130.458 85.693 129.044 84.7767C128.871 84.6642 128.93 77.9017 128.941 76.4292C128.936 76.2413 128.863 76.0615 128.737 75.9218C128.611 75.7822 128.44 75.6916 128.254 75.6663C128.068 75.641 127.878 75.6825 127.72 75.7835C127.561 75.8845 127.443 76.0384 127.388 76.218C126.89 78.6629 126.813 81.1747 127.16 83.6455C127.293 84.908 127.464 86.7955 129.116 86.8542C130.991 86.9205 131.345 84.793 131.546 83.378C131.847 81.2494 131.831 79.0882 131.5 76.9642C131.266 75.4267 130.94 73.378 129.509 72.4255Z" fill="url(#paint1_linear_1021_694)"/>
<path d="M134.958 90.0993C137.308 86.4581 137.139 78.7606 136.494 74.5168C135.832 70.1531 132.733 64.3131 127.425 65.1418C118.564 66.5168 116.815 83.6606 122.675 90.2943C122.746 90.3643 122.837 90.4092 122.935 90.422C123.033 90.4348 123.133 90.4147 123.218 90.3649C123.304 90.3151 123.371 90.2384 123.408 90.1467C123.446 90.055 123.452 89.9536 123.425 89.8581C122.855 87.8156 121.882 85.9831 121.447 83.8768C120.177 77.7406 121.467 68.4268 127.272 66.9256C132.492 65.5756 134.693 72.7256 135.014 76.4993C135.58 80.8867 135.057 85.3459 133.49 89.4831C133.125 90.3618 134.483 90.8356 134.958 90.0993Z" fill="url(#paint2_linear_1021_694)"/>
<path d="M118.75 91.0544C118.971 91.5182 119.625 91.1794 119.531 90.7257C117.626 81.2532 119.005 80.8507 118.674 76.9107C118.63 76.3832 117.825 76.0132 117.556 76.6069C116.737 78.9608 116.503 81.4787 116.875 83.9432C117.061 86.4081 117.697 88.8182 118.75 91.0544Z" fill="url(#paint3_linear_1021_694)"/>
<path d="M120.683 65.2904C119.151 67.3224 118.185 69.7245 117.883 72.2517C117.815 72.7804 118.543 73.0267 118.707 72.4792C119.676 69.2012 121.589 66.281 124.207 64.0829C125.128 63.4773 125.993 62.7895 126.79 62.0279C127.066 61.7004 126.915 61.0454 126.407 61.1054C124.123 61.3717 122.02 63.5517 120.683 65.2904Z" fill="url(#paint4_linear_1021_694)"/>
<path d="M130.725 61.6055C130.661 61.6145 130.601 61.6422 130.553 61.6851C130.504 61.728 130.47 61.7841 130.453 61.8466C130.436 61.909 130.438 61.975 130.458 62.0364C130.479 62.0978 130.517 62.1518 130.568 62.1917C137.764 65.5667 136.443 71.9105 137.818 76.1055C137.956 76.5242 138.653 76.6055 138.751 76.1055C139.775 70.943 137.206 61.7467 130.725 61.6055Z" fill="url(#paint5_linear_1021_694)"/>
<path d="M137.693 90.7391C139.875 87.9466 139.794 83.8328 139.012 80.5516C138.862 79.9266 137.988 80.2216 138.072 80.8128C138.549 84.1878 137.435 86.9616 136.723 90.1753C136.61 90.6866 137.313 91.2241 137.693 90.7391Z" fill="url(#paint6_linear_1021_694)"/>
<path d="M122.42 58.9715C122.535 58.9364 122.636 58.8651 122.708 58.7682C122.78 58.6713 122.819 58.554 122.819 58.4334C122.819 58.3128 122.78 58.1954 122.708 58.0985C122.636 58.0016 122.535 57.9304 122.42 57.8952C120.314 57.3152 111.145 57.4652 108.795 57.4702C108.568 57.4722 108.351 57.5632 108.191 57.7236C108.03 57.884 107.939 58.1009 107.938 58.3277C107.904 62.3677 108.083 66.4065 108.473 70.4277C108.482 70.5154 108.523 70.5967 108.588 70.6557C108.654 70.7148 108.739 70.7475 108.827 70.7475C108.915 70.7475 109 70.7148 109.066 70.6557C109.131 70.5967 109.172 70.5154 109.181 70.4277C109.549 66.6777 109.646 62.9515 109.653 59.1952C111.715 59.194 120.296 59.479 122.42 58.9715Z" fill="url(#paint7_linear_1021_694)"/>
<path d="M149.4 68.8514C149.574 65.3777 149.545 61.8967 149.312 58.4264C149.308 58.1993 149.216 57.9826 149.055 57.8221C148.894 57.6616 148.677 57.5699 148.45 57.5664C144.386 57.6023 140.327 57.8631 136.292 58.3477C136.183 58.3477 136.079 58.3907 136.003 58.4674C135.926 58.544 135.883 58.648 135.883 58.7564C135.883 58.8648 135.926 58.9688 136.003 59.0454C136.079 59.1221 136.183 59.1652 136.292 59.1652C140.074 59.4152 143.834 59.3902 147.619 59.3039C147.618 62.5481 147.839 65.7885 148.279 69.0027C148.393 69.6789 149.345 69.4439 149.4 68.8514Z" fill="url(#paint8_linear_1021_694)"/>
<path d="M136.375 100.542C140.102 100.872 143.848 100.751 147.588 100.707C147.815 100.706 148.033 100.615 148.193 100.455C148.354 100.294 148.444 100.077 148.446 99.85C148.553 96.5527 148.324 93.2532 147.762 90.0025C147.663 89.5475 146.878 89.5137 146.803 90.0025C146.48 92.9922 146.445 96.0061 146.701 99.0025C143.255 99.0387 139.805 99.055 136.378 99.4337C136.236 99.44 136.101 99.5009 136.002 99.6038C135.904 99.7067 135.848 99.8436 135.848 99.9863C135.847 100.129 135.902 100.266 136 100.37C136.098 100.473 136.232 100.535 136.375 100.542Z" fill="url(#paint9_linear_1021_694)"/>
<path d="M110.099 97.9818C109.724 94.8218 109.544 91.6456 109.291 88.4743C109.282 88.354 109.228 88.2415 109.14 88.1593C109.051 88.0771 108.935 88.0312 108.814 88.0312C108.694 88.0312 108.578 88.0771 108.489 88.1593C108.401 88.2415 108.347 88.354 108.338 88.4743C108.082 91.9277 108.144 95.3974 108.523 98.8394C108.532 99.059 108.624 99.267 108.78 99.4221C108.935 99.5773 109.144 99.6683 109.363 99.6769C110.63 99.9038 111.936 99.7461 113.113 99.2243C113.213 99.162 113.293 99.0724 113.343 98.9659C113.394 98.8595 113.412 98.7408 113.397 98.624C113.382 98.5073 113.333 98.3974 113.257 98.3075C113.181 98.2176 113.081 98.1514 112.968 98.1169C112.026 97.9113 111.057 97.8655 110.099 97.9818Z" fill="url(#paint10_linear_1021_694)"/>
<path d="M130.493 189.384C122.941 188.002 113.967 188.675 107.062 192.458C112.483 183.958 117.386 175.083 122.187 166.23C127.129 157.123 132.202 147.918 135.893 138.23C137.416 134.23 139.884 128.897 138.018 124.647C136.449 121.064 132.297 120.494 129.091 122.195C125.984 123.845 123.729 127.08 121.716 129.89C117.426 136.164 113.49 142.672 109.923 149.383C108.524 144.932 102.789 142.54 99.3693 145.775C97.6743 141.387 92.6055 138.607 88.463 141.188C88.1169 138.972 87.0303 136.939 85.3805 135.42C83.198 133.664 80.1793 133.829 77.673 134.724C73.0305 136.384 66.243 142.167 62.7868 145.608C54.0527 154.281 47.7232 165.075 44.4193 176.932C42.8218 182.785 41.9555 189.348 43.7068 195.248C42.1267 197.229 40.6937 199.324 39.4193 201.514C37.7701 200.756 36.1035 200.045 34.4193 199.38C27.3255 209.087 20.3805 218.905 13.8343 228.989C10.803 233.657 7.39307 238.925 13.9855 242.398C20.1855 245.663 76.8793 245.068 79.333 241.699C79.7912 241.065 80.0928 240.331 80.2132 239.557C80.3335 238.784 80.2692 237.993 80.0255 237.249C79.3543 235.155 73.5355 227.715 71.9855 225.938C73.2914 224.327 74.3986 222.564 75.283 220.688C75.4555 220.255 74.878 219.87 74.5143 220.098C72.7855 221.179 70.818 224.714 70.818 224.714C70.818 224.714 52.1255 207.569 40.4718 202.012C41.8571 200.456 43.1485 198.82 44.3393 197.112C44.5643 197.663 44.8105 198.207 45.0893 198.737C45.1624 198.856 45.276 198.946 45.4094 198.989C45.5428 199.032 45.6872 199.026 45.8165 198.971C45.9457 198.917 46.0513 198.818 46.1139 198.693C46.1766 198.568 46.1922 198.424 46.158 198.288C42.333 187.073 45.783 174.97 50.9668 164.749C55.8572 155.073 62.9399 146.672 71.6505 140.217C74.243 138.3 77.1905 136.099 80.5018 135.778C84.4593 135.394 86.8243 139.122 86.913 142.778C86.9184 142.946 86.9721 143.109 87.0679 143.248C87.1637 143.386 87.2974 143.494 87.453 143.559C87.6085 143.623 87.7794 143.641 87.9451 143.611C88.1107 143.581 88.2641 143.503 88.3868 143.388C91.643 140.298 97.1468 142.044 98.1618 147.834C98.2117 147.994 98.3064 148.136 98.4345 148.243C98.5626 148.351 98.7188 148.419 98.8847 148.441C99.0505 148.462 99.2191 148.435 99.3703 148.364C99.5215 148.293 99.6492 148.18 99.738 148.038C100.263 147.15 101.091 146.481 102.069 146.154C103.048 145.828 104.111 145.865 105.064 146.26C108.138 147.51 108.476 150.868 108.939 151.273C107.393 154.266 106.011 157.341 104.801 160.484C104.606 160.995 105.438 161.342 105.684 160.859C109.291 153.775 122.856 127.65 129.729 123.805C131.876 122.604 134.836 122.485 136.229 124.857C137.521 127.057 136.854 129.724 136.187 132.013C131.312 148.748 114.223 176.71 104.554 193.32C104.376 193.627 104.179 195.307 106.328 194.214C113.059 190.783 128.839 188.557 135.748 193.077C137.397 194.155 139.012 196.877 136.487 197.363C132.461 198.14 118.237 201.883 111.628 204.223C105.172 206.51 99.5118 209.922 93.5955 213.295C87.1018 216.999 78.7968 220.227 71.7505 215.993C71.5533 215.877 71.318 215.844 71.0965 215.901C70.875 215.959 70.6853 216.102 70.5693 216.299C70.4533 216.496 70.4203 216.732 70.4778 216.953C70.5352 217.175 70.6783 217.364 70.8755 217.48C77.1968 221.269 84.8493 219.655 91.1018 216.583C94.7105 214.81 97.953 212.375 101.562 210.61C119.079 202.052 129.972 201.619 136.161 199.372C138.677 198.458 140.596 196.197 138.842 193.59C137.088 190.984 133.394 189.917 130.493 189.384Z" fill="url(#paint11_linear_1021_694)"/>
<path d="M168.736 64.9292C170.788 72.9292 169.486 80.6867 173.403 88.2455C175.919 93.1055 179.844 97.1492 181.176 102.594C182.343 107.993 181.551 113.631 178.943 118.499C178.862 118.637 178.839 118.802 178.88 118.957C178.92 119.112 179.021 119.245 179.159 119.325C179.297 119.406 179.462 119.429 179.617 119.388C179.772 119.348 179.904 119.247 179.985 119.109C180.498 118.398 180.954 117.649 181.35 116.867C182.225 117.955 187.179 122.634 188.606 124.02C189.018 124.419 189.599 123.819 189.231 123.395C187.924 121.875 183.295 116.295 182.049 115.317C183.389 111.785 183.798 107.967 183.235 104.232C182.36 98.3567 178.816 94.0105 175.851 89.078C169.619 78.703 173.895 64.5255 166.523 56.7267C165.898 56.0692 164.729 56.9355 165.253 57.7155C166.829 59.8966 168.008 62.3386 168.736 64.9292Z" fill="url(#paint12_linear_1021_694)"/>
<path d="M165.464 151.501C166.231 152.001 167.187 150.806 166.454 150.216C164.589 148.728 162.63 147.362 160.59 146.126C162.174 145.678 163.617 144.831 164.781 143.666C165.199 143.151 164.825 142.256 164.085 142.476C162.21 143.032 160.576 144.333 158.67 144.942C155.644 145.857 152.465 146.16 149.321 145.833C146.176 145.507 143.128 144.558 140.354 143.042C140.025 142.867 139.579 143.342 139.919 143.609C143.459 146.306 147.802 147.737 152.252 147.672C154.574 147.493 156.878 147.135 159.145 146.601C159.145 146.601 163.226 150.057 165.464 151.501Z" fill="url(#paint13_linear_1021_694)"/>
<path d="M236.18 156.443C230.785 146.708 222.82 137.874 214.805 130.238C213.592 129.082 202.275 117.404 201.697 117.904C186.271 131.249 172.805 146.704 161.697 163.811C159.028 167.922 159.284 169.673 162.079 173.177C170.116 183.25 178.927 192.681 188.432 201.383C195.15 207.537 205.195 217.832 215.035 216.851C221.39 216.217 227.013 212.039 230.612 206.766C234.179 201.538 236.184 195.242 237.627 189.056C240.014 178.827 241.474 165.996 236.18 156.443ZM183.249 174.768C181.544 175.119 175.749 174.791 174.942 169.666C174.807 168.357 175.093 167.039 175.759 165.904C176.424 164.769 177.434 163.875 178.642 163.353C181.11 162.197 183.587 162.907 185.767 164.637C187.708 166.193 190.453 173.278 183.249 174.768Z" fill="url(#paint14_linear_1021_694)"/>
<defs>
<linearGradient id="paint0_linear_1021_694" x1="130.044" y1="7.07031" x2="130.044" y2="141.093" gradientUnits="userSpaceOnUse">
<stop stop-color="#108dff"/>
<stop offset="1" stop-color="#06162E"/>
</linearGradient>
<linearGradient id="paint1_linear_1021_694" x1="127.863" y1="72.0234" x2="127.863" y2="86.8557" gradientUnits="userSpaceOnUse">
<stop stop-color="#108dff"/>
<stop offset="1" stop-color="#06162E"/>
</linearGradient>
<linearGradient id="paint2_linear_1021_694" x1="128.086" y1="65.0625" x2="128.086" y2="90.4623" gradientUnits="userSpaceOnUse">
<stop stop-color="#108dff"/>
<stop offset="1" stop-color="#06162E"/>
</linearGradient>
<linearGradient id="paint3_linear_1021_694" x1="118.122" y1="76.3027" x2="118.122" y2="91.2762" gradientUnits="userSpaceOnUse">
<stop stop-color="#108dff"/>
<stop offset="1" stop-color="#06162E"/>
</linearGradient>
<linearGradient id="paint4_linear_1021_694" x1="122.402" y1="61.1016" x2="122.402" y2="72.7879" gradientUnits="userSpaceOnUse">
<stop stop-color="#108dff"/>
<stop offset="1" stop-color="#06162E"/>
</linearGradient>
<linearGradient id="paint5_linear_1021_694" x1="134.705" y1="61.6055" x2="134.705" y2="76.4507" gradientUnits="userSpaceOnUse">
<stop stop-color="#108dff"/>
<stop offset="1" stop-color="#06162E"/>
</linearGradient>
<linearGradient id="paint6_linear_1021_694" x1="138.113" y1="80.2031" x2="138.113" y2="90.929" gradientUnits="userSpaceOnUse">
<stop stop-color="#108dff"/>
<stop offset="1" stop-color="#06162E"/>
</linearGradient>
<linearGradient id="paint7_linear_1021_694" x1="115.376" y1="57.4492" x2="115.376" y2="70.7475" gradientUnits="userSpaceOnUse">
<stop stop-color="#108dff"/>
<stop offset="1" stop-color="#06162E"/>
</linearGradient>
<linearGradient id="paint8_linear_1021_694" x1="142.697" y1="57.5664" x2="142.697" y2="69.4136" gradientUnits="userSpaceOnUse">
<stop stop-color="#108dff"/>
<stop offset="1" stop-color="#06162E"/>
</linearGradient>
<linearGradient id="paint9_linear_1021_694" x1="142.16" y1="89.6484" x2="142.16" y2="100.766" gradientUnits="userSpaceOnUse">
<stop stop-color="#108dff"/>
<stop offset="1" stop-color="#06162E"/>
</linearGradient>
<linearGradient id="paint10_linear_1021_694" x1="110.793" y1="88.0312" x2="110.793" y2="99.7779" gradientUnits="userSpaceOnUse">
<stop stop-color="#108dff"/>
<stop offset="1" stop-color="#06162E"/>
</linearGradient>
<linearGradient id="paint11_linear_1021_694" x1="74.8614" y1="121.275" x2="74.8614" y2="244.56" gradientUnits="userSpaceOnUse">
<stop stop-color="#108dff"/>
<stop offset="1" stop-color="#06162E"/>
</linearGradient>
<linearGradient id="paint12_linear_1021_694" x1="177.235" y1="56.4941" x2="177.235" y2="124.151" gradientUnits="userSpaceOnUse">
<stop stop-color="#108dff"/>
<stop offset="1" stop-color="#06162E"/>
</linearGradient>
<linearGradient id="paint13_linear_1021_694" x1="153.257" y1="142.441" x2="153.257" y2="151.62" gradientUnits="userSpaceOnUse">
<stop stop-color="#108dff"/>
<stop offset="1" stop-color="#06162E"/>
</linearGradient>
<linearGradient id="paint14_linear_1021_694" x1="199.808" y1="117.889" x2="199.808" y2="216.916" gradientUnits="userSpaceOnUse">
<stop stop-color="#108dff"/>
<stop offset="1" stop-color="#06162E"/>
</linearGradient>
</defs>
</svg>
